<svg id="图层_1" xmlns="http://www.w3.org/2000/svg" viewBox="0 0 278 104"><style>.st0{opacity:.8}.st1{fill:#bcefff}.st3{fill:#d7f5ff}.st4{fill:#7f7f7f}.st5{fill:#bbf6f9}.st7{fill-rule:evenodd;clip-rule:evenodd;fill:#fff}</style><g class="st0"><path class="st1" d="M155.61 35.79c.82.74 1.78 1.64 2.14 2v.35c-.48.06-1.78.1-2.88.1h-21.81c-1.1 0-1.37.45-.6 1s1.62 1.18 1.89 1.41v.3c-.39.14-1.16.41-1.7.59s-1.92 1.36-2.66 2.17L118.44 55.8c-.79.76-.54 1.38.56 1.37l25.6-.27c1.1-.01 1.47-.75.83-1.64l-6.71-7.7c-.77-.79-1.29-1.54-1.15-1.68s.97.28 1.85.93l10.62 9.56c.73.82 1.38 1.77 1.44 2.1v.31c0 1.79-.93 3.43-2.36 3.43-.71 0-1.15-.56-1.26-2.05l-.06-.56c-.33-.87-1.5-1.53-2.6-1.47l-18.14 1.09c-1.1.07-2.89.22-3.99.33 0 0-5.91.49-6.77.79s-1.71.63-1.89.74h-.32c-.15-.23-.72-1.19-1.26-2.15s-.12-1.97.95-2.24l2.55-1.21c.92-.61 2.24-1.8 2.95-2.64l9.24-12.94c.62-.91.23-1.65-.87-1.65H113.4c-1.1 0-2.62.05-3.37.1s-2.65.03-3.08-.49-.15-.9.6-.84 3.54.1 4.64.1h37.13c1.1 0 2.56-.67 3.24-1.48s1.9-.88 2.72-.15l.33.3zm-5.7-13.58c.81.74 1.77 1.65 2.13 2.02v.36c-.48.03-1.78.05-2.88.05h-27.63c-1.1 0-2.62.05-3.37.1s-2.65.03-3.08-.49-.15-.9.6-.84 3.54.1 4.64.1h23.13c1.1 0 2.59-.67 3.32-1.48s1.98-.88 2.79-.13l.35.31zM211.33 41.94c.83.7 1.71 1.46 1.95 1.69v.2c-.3.03-1.45.05-2.55.05h-41.31c-1.1 0-2.62.05-3.37.1s-2.65.03-3.08-.49-.15-.9.6-.84 3.54.1 4.64.1h16.37c1.1 0 2-.9 2-2v-.97c0-1.1-.9-2-2-2h-9.45c-1.1 0-2.62.05-3.37.1s-2.65.03-3.08-.49-.15-.9.6-.84 3.54.1 4.64.1h10.66c1.1 0 2-.9 2-2v-.35c0-1.1-.9-2-2-2h-9.51c-1.1 0-2 .23-2 .51s-.01.67-.03.87-1.49.93-2 1.13h-.27c-.27 0-.33-.2-.33-.56 0-.1.1-3.22.1-3.22.04-1.1.06-2.9.06-4v-1.22c0-1.1-.01-2.77-.03-3.72s.57-2.73 1.43-2.15 2.47 1.05 3.57 1.05h25.05c1.1 0 2.28-.4 2.63-.9s1.39-.46 2.31.08 1.87 1.11 2.11 1.28v.3c-.18.14-.64.45-1.02.69s-.69 1.34-.69 2.44v.3c0 1.1.01 2.75.03 3.66s.14 3.01.14 3.1-.04.31-.08.51-1.49.93-2 1.13h-.55c0-.7-.9-1.28-2-1.28h-10.44c-1.1 0-2 .9-2 2v.35c0 1.1.9 2 2 2h9.07c1.1 0 2.41-.48 2.91-1.08s1.6-.5 2.44.21l.06.05c.84.7 1.68 1.44 1.87 1.64v.2c-.27.06-1.39.1-2.49.1h-13.85c-1.1 0-2 .9-2 2v.97c0 1.1.9 2 2 2h14.89c1.1 0 2.42-.47 2.93-1.05s1.61-.46 2.44.25zm-40.47 2.86c.2 0 .13.87-.15 1.94l-1.83 4.32c-.71.84-2.01 1.89-2.89 2.34h-.82c-1.15 0-1.87-.46-1.87-1.02 0-.46.08-.52.08-.52.89-.64 2.35-1.7 3.24-2.35l2.98-2.92c.5-.98 1.06-1.79 1.26-1.79zm37.54 16.06c.81.74 1.7 1.6 1.97 1.91v.35c-.36.06-1.56.1-2.66.1h-37.13c-1.1 0-2.62.05-3.37.1s-2.65.05-3.08-.46-.15-.88.6-.82 3.54.1 4.64.1h15c1.1 0 2-.9 2-2v-1.78c0-1.1-.9-2-2-2h-8.08c-1.1 0-2.62.05-3.37.1s-2.65.05-3.08-.46-.15-.88.6-.82 3.54.1 4.64.1h9.29c1.1 0 2-.78 2-1.74s.68-4.08 1.71-3.69l.16.06c1.03.39 2.07.83 2.31.97v.36c-.94.51-1.7 1.62-1.7 2.48s.9 1.56 2 1.56h5.67c1.1 0 2.42-.5 2.93-1.1s1.59-.56 2.39.1 1.68 1.41 1.95 1.66v.35c-.36.03-1.56.05-2.66.05h-10.28c-1.1 0-2 .9-2 2v1.78c0 1.1.9 2 2 2h11.71c1.1 0 2.51-.62 3.13-1.38s1.79-.77 2.6-.03l.11.15zm-23.81-29.67c1.1 0 2-.9 2-2v-5.06c0-1.1-.9-2-2-2h-9.51c-1.1 0-2 .9-2 2v5.06c0 1.1.9 2 2 2h9.51zm-8.32-7.27c.09-.14.97.15 1.96.64 0 0 3.76 1.87 3.98 3.05.27 1.48-.66 2.61-1.54 2.61-.49 0-.71-.26-1.04-1.43-.44-1.48-2.11-3.18-2.11-3.18-.79-.8-1.34-1.55-1.25-1.69zm2.14 21.42c.09-.13.96.19 1.93.7 0 0 3.17 1.68 3.17 3.57 0 .92-.6 2-1.59 2-.55 0-.88-.26-1.21-1.54-.49-2-1.23-2.93-1.23-2.93-.68-.86-1.16-1.67-1.07-1.8zm23.09-14.15c1.1 0 2-.9 2-2v-5.06c0-1.1-.9-2-2-2h-10.44c-1.1 0-2 .9-2 2v5.06c0 1.1.9 2 2 2h10.44zm-11.17 13.84c.09-.13.93.24 1.87.82 0 0 3.79 2.33 3.79 3.82 0 .87-.55 1.79-1.65 1.79-.6 0-.93-.15-1.26-1.43-.49-2-1.59-3.26-1.59-3.26-.74-.83-1.26-1.61-1.16-1.74zm7.46-20.86c.88.59 1.69 1.17 1.81 1.28v.1c-.15.06-.66.16-1.13.23s-1.53.72-2.36 1.45l-2.54 2.23c-.83.73-1.63 1.24-1.78 1.14s.24-.92.87-1.82l2.55-3.94c.55-.96 1.71-1.26 2.58-.67zm4.29 21.48c.09-.13 1.02.05 2.07.39 0 0 6.06 1.99 6.06 5.31 0 .87-.49 1.49-1.26 1.49h-.49c-.45-.62-1.3-1.89-1.88-2.83l-3.13-2.85c-.85-.7-1.46-1.39-1.37-1.51zM262.2 27.26c.95.56 2 1.2 2.33 1.42V29.09c-.24.2-.82.62-1.29.95s-.85 1.49-.85 2.59V51.1c0 1.1.01 2.9.03 4l.14 5.37c.06 1.1.1 2.04.1 2.1s-.57.53-1.26 1.05-1.35.89-1.46.82-.19-1.41-.19-2.41-.9-1.82-2-1.82h-28.13c-1.1 0-2 .73-2 1.61s-.53 1.99-1.18 2.46-1.4.71-1.67.54v-.72c0-.97.16-6.45.16-6.45.03-1.1.06-2.9.06-4V32.98c0-1.1-.01-2.84-.03-3.87s.6-2.94 1.5-2.31l.52.36c.9.63 2.54 1.15 3.64 1.15h5.17c1.1 0 2.3-.85 2.66-1.89l2.23-6.95c.31-1.05 1.37-1.52 2.36-1.02l.21.11c.98.49 1.94.99 2.12 1.1v.2c-.3.08-.87.3-1.26.49s-1.61 1.88-2.17 2.82l-2.02 3.42c-.56.95-.12 1.72.98 1.72h15.77c1.1 0 2.32-.52 2.71-1.15s1.49-.7 2.44-.14l.38.24zm-4.45 15.55c1.1 0 2-.9 2-2V31.4c0-1.1-.9-2-2-2h-28.13c-1.1 0-2 .9-2 2v9.41c0 1.1.9 2 2 2h28.13zm0 16.28c1.1 0 2-.9 2-2V45.93c0-1.1-.9-2-2-2h-28.13c-1.1 0-2 .9-2 2v11.15c0 1.1.9 2 2 2h28.13z"/><path class="st1" d="M157.61 37.79c.82.74 1.78 1.64 2.14 2v.35c-.48.06-1.78.1-2.88.1h-21.81c-1.1 0-1.37.45-.6 1s1.62 1.18 1.89 1.41v.3c-.39.14-1.16.41-1.7.59s-1.92 1.36-2.66 2.17L120.44 57.8c-.79.76-.54 1.38.56 1.37l25.6-.27c1.1-.01 1.47-.75.83-1.64l-6.71-7.7c-.77-.79-1.29-1.54-1.15-1.68s.97.28 1.85.93l10.62 9.56c.73.82 1.38 1.77 1.44 2.1v.31c0 1.79-.93 3.43-2.36 3.43-.71 0-1.15-.56-1.26-2.05l-.06-.56c-.33-.87-1.5-1.53-2.6-1.47l-18.14 1.09c-1.1.07-2.89.22-3.99.33 0 0-5.91.49-6.77.79s-1.71.63-1.89.74h-.32c-.15-.23-.72-1.19-1.26-2.15s-.12-1.97.95-2.24l2.55-1.21c.92-.61 2.24-1.8 2.95-2.64l9.24-12.94c.62-.91.23-1.65-.87-1.65H115.4c-1.1 0-2.62.05-3.37.1s-2.65.03-3.08-.49-.15-.9.6-.84 3.54.1 4.64.1h37.13c1.1 0 2.56-.67 3.24-1.48s1.9-.88 2.72-.15l.33.3zm-5.7-13.58c.81.74 1.77 1.65 2.13 2.02v.36c-.48.03-1.78.05-2.88.05h-27.63c-1.1 0-2.62.05-3.37.1s-2.65.03-3.08-.49-.15-.9.6-.84 3.54.1 4.64.1h23.13c1.1 0 2.59-.67 3.32-1.48s1.98-.88 2.79-.13l.35.31zM213.33 43.94c.83.7 1.71 1.46 1.95 1.69v.2c-.3.03-1.45.05-2.55.05h-41.31c-1.1 0-2.62.05-3.37.1s-2.65.03-3.08-.49-.15-.9.6-.84 3.54.1 4.64.1h16.37c1.1 0 2-.9 2-2v-.97c0-1.1-.9-2-2-2h-9.45c-1.1 0-2.62.05-3.37.1s-2.65.03-3.08-.49-.15-.9.6-.84 3.54.1 4.64.1h10.66c1.1 0 2-.9 2-2v-.35c0-1.1-.9-2-2-2h-9.51c-1.1 0-2 .23-2 .51s-.01.67-.03.87-1.49.93-2 1.13h-.27c-.27 0-.33-.2-.33-.56 0-.1.1-3.22.1-3.22.04-1.1.06-2.9.06-4v-1.22c0-1.1-.01-2.77-.03-3.72s.57-2.73 1.43-2.15 2.47 1.05 3.57 1.05h25.05c1.1 0 2.28-.4 2.63-.9s1.39-.46 2.31.08 1.87 1.11 2.11 1.28v.3c-.18.14-.64.45-1.02.69s-.69 1.34-.69 2.44v.3c0 1.1.01 2.75.03 3.66s.14 3.01.14 3.1-.04.31-.08.51-1.49.93-2 1.13h-.55c0-.7-.9-1.28-2-1.28h-10.44c-1.1 0-2 .9-2 2v.35c0 1.1.9 2 2 2h9.07c1.1 0 2.41-.48 2.91-1.08s1.6-.5 2.44.21l.06.05c.84.7 1.68 1.44 1.87 1.64v.2c-.27.06-1.39.1-2.49.1h-13.85c-1.1 0-2 .9-2 2v.97c0 1.1.9 2 2 2h14.89c1.1 0 2.42-.47 2.93-1.05s1.61-.46 2.44.25zm-40.47 2.86c.2 0 .13.87-.15 1.94l-1.83 4.32c-.71.84-2.01 1.89-2.89 2.34h-.82c-1.15 0-1.87-.46-1.87-1.02 0-.46.08-.52.08-.52.89-.64 2.35-1.7 3.24-2.35l2.98-2.92c.5-.98 1.06-1.79 1.26-1.79zm37.54 16.06c.81.74 1.7 1.6 1.97 1.91v.35c-.36.06-1.56.1-2.66.1h-37.13c-1.1 0-2.62.05-3.37.1s-2.65.05-3.08-.46-.15-.88.6-.82 3.54.1 4.64.1h15c1.1 0 2-.9 2-2v-1.78c0-1.1-.9-2-2-2h-8.08c-1.1 0-2.62.05-3.37.1s-2.65.05-3.08-.46-.15-.88.6-.82 3.54.1 4.64.1h9.29c1.1 0 2-.78 2-1.74s.68-4.08 1.71-3.69l.16.06c1.03.39 2.07.83 2.31.97v.36c-.94.51-1.7 1.62-1.7 2.48s.9 1.56 2 1.56h5.67c1.1 0 2.42-.5 2.93-1.1s1.59-.56 2.39.1 1.68 1.41 1.95 1.66v.35c-.36.03-1.56.05-2.66.05h-10.28c-1.1 0-2 .9-2 2v1.78c0 1.1.9 2 2 2h11.71c1.1 0 2.51-.62 3.13-1.38s1.79-.77 2.6-.03l.11.15zm-23.81-29.67c1.1 0 2-.9 2-2v-5.06c0-1.1-.9-2-2-2h-9.51c-1.1 0-2 .9-2 2v5.06c0 1.1.9 2 2 2h9.51zm-8.32-7.27c.09-.14.97.15 1.96.64 0 0 3.76 1.87 3.98 3.05.27 1.48-.66 2.61-1.54 2.61-.49 0-.71-.26-1.04-1.43-.44-1.48-2.11-3.18-2.11-3.18-.79-.8-1.34-1.55-1.25-1.69zm2.14 21.42c.09-.13.96.19 1.93.7 0 0 3.17 1.68 3.17 3.57 0 .92-.6 2-1.59 2-.55 0-.88-.26-1.21-1.54-.49-2-1.23-2.93-1.23-2.93-.68-.86-1.16-1.67-1.07-1.8zm23.09-14.15c1.1 0 2-.9 2-2v-5.06c0-1.1-.9-2-2-2h-10.44c-1.1 0-2 .9-2 2v5.06c0 1.1.9 2 2 2h10.44zm-11.17 13.84c.09-.13.93.24 1.87.82 0 0 3.79 2.33 3.79 3.82 0 .87-.55 1.79-1.65 1.79-.6 0-.93-.15-1.26-1.43-.49-2-1.59-3.26-1.59-3.26-.74-.83-1.26-1.61-1.16-1.74zm7.46-20.86c.88.59 1.69 1.17 1.81 1.28v.1c-.15.06-.66.16-1.13.23s-1.53.72-2.36 1.45l-2.54 2.23c-.83.73-1.63 1.24-1.78 1.14s.24-.92.87-1.82l2.55-3.94c.55-.96 1.71-1.26 2.58-.67zm4.29 21.48c.09-.13 1.02.05 2.07.39 0 0 6.06 1.99 6.06 5.31 0 .87-.49 1.49-1.26 1.49h-.49c-.45-.62-1.3-1.89-1.88-2.83l-3.13-2.85c-.85-.7-1.46-1.39-1.37-1.51zM264.2 29.26c.95.56 2 1.2 2.33 1.42V31.09c-.24.2-.82.62-1.29.95s-.85 1.49-.85 2.59V53.1c0 1.1.01 2.9.03 4l.14 5.37c.06 1.1.1 2.04.1 2.1s-.57.53-1.26 1.05-1.35.89-1.46.82-.19-1.41-.19-2.41c0-1-.9-1.82-2-1.82h-28.13c-1.1 0-2 .73-2 1.61 0 .89-.53 1.99-1.18 2.46s-1.4.71-1.67.54v-.72c0-.97.16-6.45.16-6.45.03-1.1.06-2.9.06-4V34.98c0-1.1-.01-2.84-.03-3.87s.6-2.94 1.5-2.31l.52.36c.9.63 2.54 1.15 3.64 1.15h5.17c1.1 0 2.3-.85 2.66-1.89l2.23-6.95c.31-1.05 1.37-1.52 2.36-1.02l.21.11c.98.49 1.94.99 2.12 1.1v.2c-.3.08-.87.3-1.26.49s-1.61 1.88-2.17 2.82l-2.02 3.42c-.56.95-.12 1.72.98 1.72h15.77c1.1 0 2.32-.52 2.71-1.15s1.49-.7 2.44-.14l.38.24zm-4.45 15.55c1.1 0 2-.9 2-2V33.4c0-1.1-.9-2-2-2h-28.13c-1.1 0-2 .9-2 2v9.41c0 1.1.9 2 2 2h28.13zm0 16.28c1.1 0 2-.9 2-2V47.93c0-1.1-.9-2-2-2h-28.13c-1.1 0-2 .9-2 2v11.15c0 1.1.9 2 2 2h28.13z"/></g><g opacity=".79"><path class="st3" d="M157.61 37.79c.82.74 1.78 1.64 2.14 2v.35c-.48.06-1.78.1-2.88.1h-21.81c-1.1 0-1.37.45-.6 1s1.62 1.18 1.89 1.41v.3c-.39.14-1.16.41-1.7.59s-1.92 1.36-2.66 2.17L120.44 57.8c-.79.76-.54 1.38.56 1.37l25.6-.27c1.1-.01 1.47-.75.83-1.64l-6.71-7.7c-.77-.79-1.29-1.54-1.15-1.68s.97.28 1.85.93l10.62 9.56c.73.82 1.38 1.77 1.44 2.1v.31c0 1.79-.93 3.43-2.36 3.43-.71 0-1.15-.56-1.26-2.05l-.06-.56c-.33-.87-1.5-1.53-2.6-1.47l-18.14 1.09c-1.1.07-2.89.22-3.99.33 0 0-5.91.49-6.77.79s-1.71.63-1.89.74h-.32c-.15-.23-.72-1.19-1.26-2.15s-.12-1.97.95-2.24l2.55-1.21c.92-.61 2.24-1.8 2.95-2.64l9.24-12.94c.62-.91.23-1.65-.87-1.65H115.4c-1.1 0-2.62.05-3.37.1s-2.65.03-3.08-.49-.15-.9.6-.84 3.54.1 4.64.1h37.13c1.1 0 2.56-.67 3.24-1.48s1.9-.88 2.72-.15l.33.3zm-5.7-13.58c.81.74 1.77 1.65 2.13 2.02v.36c-.48.03-1.78.05-2.88.05h-27.63c-1.1 0-2.62.05-3.37.1s-2.65.03-3.08-.49-.15-.9.6-.84 3.54.1 4.64.1h23.13c1.1 0 2.59-.67 3.32-1.48s1.98-.88 2.79-.13l.35.31zM213.33 43.94c.83.7 1.71 1.46 1.95 1.69v.2c-.3.03-1.45.05-2.55.05h-41.31c-1.1 0-2.62.05-3.37.1s-2.65.03-3.08-.49-.15-.9.6-.84 3.54.1 4.64.1h16.37c1.1 0 2-.9 2-2v-.97c0-1.1-.9-2-2-2h-9.45c-1.1 0-2.62.05-3.37.1s-2.65.03-3.08-.49-.15-.9.6-.84 3.54.1 4.64.1h10.66c1.1 0 2-.9 2-2v-.35c0-1.1-.9-2-2-2h-9.51c-1.1 0-2 .23-2 .51s-.01.67-.03.87-1.49.93-2 1.13h-.27c-.27 0-.33-.2-.33-.56 0-.1.1-3.22.1-3.22.04-1.1.06-2.9.06-4v-1.22c0-1.1-.01-2.77-.03-3.72s.57-2.73 1.43-2.15 2.47 1.05 3.57 1.05h25.05c1.1 0 2.28-.4 2.63-.9s1.39-.46 2.31.08 1.87 1.11 2.11 1.28v.3c-.18.14-.64.45-1.02.69s-.69 1.34-.69 2.44v.3c0 1.1.01 2.75.03 3.66s.14 3.01.14 3.1-.04.31-.08.51-1.49.93-2 1.13h-.55c0-.7-.9-1.28-2-1.28h-10.44c-1.1 0-2 .9-2 2v.35c0 1.1.9 2 2 2h9.07c1.1 0 2.41-.48 2.91-1.08s1.6-.5 2.44.21l.06.05c.84.7 1.68 1.44 1.87 1.64v.2c-.27.06-1.39.1-2.49.1h-13.85c-1.1 0-2 .9-2 2v.97c0 1.1.9 2 2 2h14.89c1.1 0 2.42-.47 2.93-1.05s1.61-.46 2.44.25zm-40.47 2.86c.2 0 .13.87-.15 1.94l-1.83 4.32c-.71.84-2.01 1.89-2.89 2.34h-.82c-1.15 0-1.87-.46-1.87-1.02 0-.46.08-.52.08-.52.89-.64 2.35-1.7 3.24-2.35l2.98-2.92c.5-.98 1.06-1.79 1.26-1.79zm37.54 16.06c.81.74 1.7 1.6 1.97 1.91v.35c-.36.06-1.56.1-2.66.1h-37.13c-1.1 0-2.62.05-3.37.1s-2.65.05-3.08-.46-.15-.88.6-.82 3.54.1 4.64.1h15c1.1 0 2-.9 2-2v-1.78c0-1.1-.9-2-2-2h-8.08c-1.1 0-2.62.05-3.37.1s-2.65.05-3.08-.46-.15-.88.6-.82 3.54.1 4.64.1h9.29c1.1 0 2-.78 2-1.74s.68-4.08 1.71-3.69l.16.06c1.03.39 2.07.83 2.31.97v.36c-.94.51-1.7 1.62-1.7 2.48s.9 1.56 2 1.56h5.67c1.1 0 2.42-.5 2.93-1.1s1.59-.56 2.39.1 1.68 1.41 1.95 1.66v.35c-.36.03-1.56.05-2.66.05h-10.28c-1.1 0-2 .9-2 2v1.78c0 1.1.9 2 2 2h11.71c1.1 0 2.51-.62 3.13-1.38s1.79-.77 2.6-.03l.11.15zm-23.81-29.67c1.1 0 2-.9 2-2v-5.06c0-1.1-.9-2-2-2h-9.51c-1.1 0-2 .9-2 2v5.06c0 1.1.9 2 2 2h9.51zm-8.32-7.27c.09-.14.97.15 1.96.64 0 0 3.76 1.87 3.98 3.05.27 1.48-.66 2.61-1.54 2.61-.49 0-.71-.26-1.04-1.43-.44-1.48-2.11-3.18-2.11-3.18-.79-.8-1.34-1.55-1.25-1.69zm2.14 21.42c.09-.13.96.19 1.93.7 0 0 3.17 1.68 3.17 3.57 0 .92-.6 2-1.59 2-.55 0-.88-.26-1.21-1.54-.49-2-1.23-2.93-1.23-2.93-.68-.86-1.16-1.67-1.07-1.8zm23.09-14.15c1.1 0 2-.9 2-2v-5.06c0-1.1-.9-2-2-2h-10.44c-1.1 0-2 .9-2 2v5.06c0 1.1.9 2 2 2h10.44zm-11.17 13.84c.09-.13.93.24 1.87.82 0 0 3.79 2.33 3.79 3.82 0 .87-.55 1.79-1.65 1.79-.6 0-.93-.15-1.26-1.43-.49-2-1.59-3.26-1.59-3.26-.74-.83-1.26-1.61-1.16-1.74zm7.46-20.86c.88.59 1.69 1.17 1.81 1.28v.1c-.15.06-.66.16-1.13.23s-1.53.72-2.36 1.45l-2.54 2.23c-.83.73-1.63 1.24-1.78 1.14s.24-.92.87-1.82l2.55-3.94c.55-.96 1.71-1.26 2.58-.67zm4.29 21.48c.09-.13 1.02.05 2.07.39 0 0 6.06 1.99 6.06 5.31 0 .87-.49 1.49-1.26 1.49h-.49c-.45-.62-1.3-1.89-1.88-2.83l-3.13-2.85c-.85-.7-1.46-1.39-1.37-1.51zM264.2 29.26c.95.56 2 1.2 2.33 1.42V31.09c-.24.2-.82.62-1.29.95s-.85 1.49-.85 2.59V53.1c0 1.1.01 2.9.03 4l.14 5.37c.06 1.1.1 2.04.1 2.1s-.57.53-1.26 1.05-1.35.89-1.46.82-.19-1.41-.19-2.41c0-1-.9-1.82-2-1.82h-28.13c-1.1 0-2 .73-2 1.61 0 .89-.53 1.99-1.18 2.46s-1.4.71-1.67.54v-.72c0-.97.16-6.45.16-6.45.03-1.1.06-2.9.06-4V34.98c0-1.1-.01-2.84-.03-3.87s.6-2.94 1.5-2.31l.52.36c.9.63 2.54 1.15 3.64 1.15h5.17c1.1 0 2.3-.85 2.66-1.89l2.23-6.95c.31-1.05 1.37-1.52 2.36-1.02l.21.11c.98.49 1.94.99 2.12 1.1v.2c-.3.08-.87.3-1.26.49s-1.61 1.88-2.17 2.82l-2.02 3.42c-.56.95-.12 1.72.98 1.72h15.77c1.1 0 2.32-.52 2.71-1.15s1.49-.7 2.44-.14l.38.24zm-4.45 15.55c1.1 0 2-.9 2-2V33.4c0-1.1-.9-2-2-2h-28.13c-1.1 0-2 .9-2 2v9.41c0 1.1.9 2 2 2h28.13zm0 16.28c1.1 0 2-.9 2-2V47.93c0-1.1-.9-2-2-2h-28.13c-1.1 0-2 .9-2 2v11.15c0 1.1.9 2 2 2h28.13z"/></g><path class="st4" d="M159.61 39.79c.82.74 1.78 1.64 2.14 2v.35c-.48.06-1.78.1-2.88.1h-21.81c-1.1 0-1.37.45-.6 1s1.62 1.18 1.89 1.41v.3c-.39.14-1.16.41-1.7.59s-1.92 1.36-2.66 2.17L122.44 59.8c-.79.76-.54 1.38.56 1.37l25.6-.27c1.1-.01 1.47-.75.83-1.64l-6.71-7.7c-.77-.79-1.29-1.54-1.15-1.68s.97.28 1.85.93l10.62 9.56c.73.82 1.38 1.77 1.44 2.1v.31c0 1.79-.93 3.43-2.36 3.43-.71 0-1.15-.56-1.26-2.05l-.06-.56c-.33-.87-1.5-1.53-2.6-1.47l-18.14 1.09c-1.1.07-2.89.22-3.99.33 0 0-5.91.49-6.77.79s-1.71.63-1.89.74h-.32c-.15-.23-.72-1.19-1.26-2.15s-.12-1.97.95-2.24l2.55-1.21c.92-.61 2.24-1.8 2.95-2.64l9.24-12.94c.62-.91.23-1.65-.87-1.65H117.4c-1.1 0-2.62.05-3.37.1s-2.65.03-3.08-.49-.15-.9.6-.84 3.54.1 4.64.1h37.13c1.1 0 2.56-.67 3.24-1.48s1.9-.88 2.72-.15l.33.3zm-5.7-13.58c.81.74 1.77 1.65 2.13 2.02v.36c-.48.03-1.78.05-2.88.05h-27.63c-1.1 0-2.62.05-3.37.1s-2.65.03-3.08-.49-.15-.9.6-.84 3.54.1 4.64.1h23.13c1.1 0 2.59-.67 3.32-1.48s1.98-.88 2.79-.13l.35.31zM215.33 45.94c.83.7 1.71 1.46 1.95 1.69v.2c-.3.03-1.45.05-2.55.05h-41.31c-1.1 0-2.62.05-3.37.1s-2.65.03-3.08-.49-.15-.9.6-.84 3.54.1 4.64.1h16.37c1.1 0 2-.9 2-2v-.97c0-1.1-.9-2-2-2h-9.45c-1.1 0-2.62.05-3.37.1s-2.65.03-3.08-.49-.15-.9.6-.84 3.54.1 4.64.1h10.66c1.1 0 2-.9 2-2v-.35c0-1.1-.9-2-2-2h-9.51c-1.1 0-2 .23-2 .51s-.01.67-.03.87-1.49.93-2 1.13h-.27c-.27 0-.33-.2-.33-.56 0-.1.1-3.22.1-3.22.04-1.1.06-2.9.06-4v-1.22c0-1.1-.01-2.77-.03-3.72s.57-2.73 1.43-2.15 2.47 1.05 3.57 1.05h25.05c1.1 0 2.28-.4 2.63-.9s1.39-.46 2.31.08 1.87 1.11 2.11 1.28v.3c-.18.14-.64.45-1.02.69s-.69 1.34-.69 2.44v.3c0 1.1.01 2.75.03 3.66s.14 3.01.14 3.1-.04.31-.08.51-1.49.93-2 1.13h-.55c0-.7-.9-1.28-2-1.28h-10.44c-1.1 0-2 .9-2 2v.35c0 1.1.9 2 2 2h9.07c1.1 0 2.41-.48 2.91-1.08s1.6-.5 2.44.21l.06.05c.84.7 1.68 1.44 1.87 1.64v.2c-.27.06-1.39.1-2.49.1h-13.85c-1.1 0-2 .9-2 2v.97c0 1.1.9 2 2 2h14.89c1.1 0 2.42-.47 2.93-1.05s1.61-.46 2.44.25zm-40.47 2.86c.2 0 .13.87-.15 1.94l-1.83 4.32c-.71.84-2.01 1.89-2.89 2.34h-.82c-1.15 0-1.87-.46-1.87-1.02 0-.46.08-.52.08-.52.89-.64 2.35-1.7 3.24-2.35l2.98-2.92c.5-.98 1.06-1.79 1.26-1.79zm37.54 16.06c.81.74 1.7 1.6 1.97 1.91v.35c-.36.06-1.56.1-2.66.1h-37.13c-1.1 0-2.62.05-3.37.1s-2.65.05-3.08-.46-.15-.88.6-.82 3.54.1 4.64.1h15c1.1 0 2-.9 2-2v-1.78c0-1.1-.9-2-2-2h-8.08c-1.1 0-2.62.05-3.37.1s-2.65.05-3.08-.46-.15-.88.6-.82 3.54.1 4.64.1h9.29c1.1 0 2-.78 2-1.74s.68-4.08 1.71-3.69l.16.06c1.03.39 2.07.83 2.31.97v.36c-.94.51-1.7 1.62-1.7 2.48s.9 1.56 2 1.56h5.67c1.1 0 2.42-.5 2.93-1.1s1.59-.56 2.39.1 1.68 1.41 1.95 1.66v.35c-.36.03-1.56.05-2.66.05h-10.28c-1.1 0-2 .9-2 2v1.78c0 1.1.9 2 2 2h11.71c1.1 0 2.51-.62 3.13-1.38s1.79-.77 2.6-.03l.11.15zm-23.81-29.67c1.1 0 2-.9 2-2v-5.06c0-1.1-.9-2-2-2h-9.51c-1.1 0-2 .9-2 2v5.06c0 1.1.9 2 2 2h9.51zm-8.32-7.27c.09-.14.97.15 1.96.64 0 0 3.76 1.87 3.98 3.05.27 1.48-.66 2.61-1.54 2.61-.49 0-.71-.26-1.04-1.43-.44-1.48-2.11-3.18-2.11-3.18-.79-.8-1.34-1.55-1.25-1.69zm2.14 21.42c.09-.13.96.19 1.93.7 0 0 3.17 1.68 3.17 3.57 0 .92-.6 2-1.59 2-.55 0-.88-.26-1.21-1.54-.49-2-1.23-2.93-1.23-2.93-.68-.86-1.16-1.67-1.07-1.8zm23.09-14.15c1.1 0 2-.9 2-2v-5.06c0-1.1-.9-2-2-2h-10.44c-1.1 0-2 .9-2 2v5.06c0 1.1.9 2 2 2h10.44zm-11.17 13.84c.09-.13.93.24 1.87.82 0 0 3.79 2.33 3.79 3.82 0 .87-.55 1.79-1.65 1.79-.6 0-.93-.15-1.26-1.43-.49-2-1.59-3.26-1.59-3.26-.74-.83-1.26-1.61-1.16-1.74zm7.46-20.86c.88.59 1.69 1.17 1.81 1.28v.1c-.15.06-.66.16-1.13.23s-1.53.72-2.36 1.45l-2.54 2.23c-.83.73-1.63 1.24-1.78 1.14s.24-.92.87-1.82l2.55-3.94c.55-.96 1.71-1.26 2.58-.67zm4.29 21.48c.09-.13 1.02.05 2.07.39 0 0 6.06 1.99 6.06 5.31 0 .87-.49 1.49-1.26 1.49h-.49c-.45-.62-1.3-1.89-1.88-2.83l-3.13-2.85c-.85-.7-1.46-1.39-1.37-1.51zM266.2 31.26c.95.56 2 1.2 2.33 1.42V33.09c-.24.2-.82.62-1.29.95s-.85 1.49-.85 2.59V55.1c0 1.1.01 2.9.03 4l.14 5.37c.06 1.1.1 2.04.1 2.1s-.57.53-1.26 1.05-1.35.89-1.46.82-.19-1.41-.19-2.41-.9-1.82-2-1.82h-28.13c-1.1 0-2 .73-2 1.61s-.53 1.99-1.18 2.46-1.4.71-1.67.54v-.72c0-.97.16-6.45.16-6.45.03-1.1.06-2.9.06-4V36.98c0-1.1-.01-2.84-.03-3.87s.6-2.94 1.5-2.31l.52.36c.9.63 2.54 1.15 3.64 1.15h5.17c1.1 0 2.3-.85 2.66-1.89l2.23-6.95c.31-1.05 1.37-1.52 2.36-1.02l.21.11c.98.49 1.94.99 2.12 1.1v.2c-.3.08-.87.3-1.26.49s-1.61 1.88-2.17 2.82l-2.02 3.42c-.56.95-.12 1.72.98 1.72h15.77c1.1 0 2.32-.52 2.71-1.15s1.49-.7 2.44-.14l.38.24zm-4.45 15.55c1.1 0 2-.9 2-2V35.4c0-1.1-.9-2-2-2h-28.13c-1.1 0-2 .9-2 2v9.41c0 1.1.9 2 2 2h28.13zm0 16.28c1.1 0 2-.9 2-2V49.93c0-1.1-.9-2-2-2h-28.13c-1.1 0-2 .9-2 2v11.15c0 1.1.9 2 2 2h28.13z"/><g><g class="st0"><path class="st5" d="M114.74 83.45c-.22.06-.44.11-.5.12h-.16c-.02-.15-.04-.3-.04-.33v-.02-.02c.01-.03.14-.95.3-2.04l.93-6.46c.16-1.09.29-1.99.29-2.01v-.01c0-.01 0-.03.01-.04v-.05-.04c0-.04.02-.08.05-.11l.03-.03c.1-.04.58-.18 1.06-.32s.92-.27.98-.29l.07-.04a.63.63 0 0 1 .22-.05c.05 0 .1.01.15.04l.04.03c.01.08.01.15.01.16v.02c0 .01-.01.08-.03.15l-.03.19c-.03.19-.07.42-.11.7-.04.27-.09.56-.13.88-.05.31-.09.61-.13.88-.04.27-.08.5-.11.7l-.03.19c-.01.07.26-.06.61-.3l.33-.16c.33-.16.65-.24.97-.25.42 0 .77.1 1.06.3.29.21.52.48.69.83.17.34.29.74.35 1.19.06.45.07.92.04 1.4-.03.39-.09.78-.18 1.17-.09.39-.2.76-.34 1.12s-.31.7-.5 1.01c-.19.32-.41.59-.64.82-.23.23-.49.42-.77.55-.28.13-.57.2-.88.21-.38 0-.71-.1-1.01-.29l-.3-.2c-.28-.32-.53-.48-.54-.36l-.01.07c-.01.07-.03.12-.05.16-.03.04-.06.07-.11.09l-.05.02c-.09.03-.22.07-.28.09l-.11.03c-.11.03-.25.07-.41.11-.16.04-.34.09-.53.14l-.21.05zm2.29-4.1c-.12.79-.17 1.52-.13 1.63l.07.1c.07.1.15.19.24.27s.2.15.31.2c.11.05.23.07.36.07.17 0 .34-.08.51-.25.17-.17.32-.39.46-.67s.25-.6.34-.95c.09-.36.15-.73.18-1.11.02-.24.02-.46 0-.67-.02-.21-.06-.39-.12-.55a.93.93 0 0 0-.25-.37.617.617 0 0 0-.41-.14c-.26 0-.51.1-.75.29l-.23.19c-.2.29-.47 1.17-.58 1.96zM127.02 74.89c.39 0 .73.08 1.03.25.3.17.55.4.76.67.2.28.35.59.45.93.09.34.13.69.1 1.03-.02.3-.12.61-.3.92s-.42.59-.71.83c-.3.25-.65.45-1.05.6-.4.15-.83.23-1.3.24h-.24c-.28-.05-.5.09-.48.31l.07.15c.07.15.17.28.29.37.12.1.26.17.42.21.16.05.33.07.5.07.2 0 .38-.02.57-.07.18-.04.36-.1.53-.17.17-.07.34-.15.5-.23l.16-.08c.16-.09.33-.18.37-.19l.03-.01.03-.01c.03 0 .04.13.02.3l-.01.14c-.01.14-.02.31-.04.52l-.02.2c-.02.26-.04.49-.03.52v.08c0 .06-.05.12-.15.19-.09.07-.22.14-.37.21-.15.07-.32.15-.51.22s-.38.13-.58.19c-.2.06-.38.1-.56.14-.18.03-.34.05-.47.05-.44 0-.85-.09-1.25-.27-.4-.18-.74-.44-1.04-.78-.29-.34-.51-.76-.67-1.25a4.38 4.38 0 0 1-.16-1.65c.05-.64.19-1.25.41-1.81.23-.56.52-1.05.88-1.47.36-.42.78-.75 1.26-.99a3.64 3.64 0 0 1 1.56-.36zm-.23 1.96c-.17 0-.32.05-.47.13-.15.09-.28.21-.41.37-.13.16-.24.35-.35.58l-.1.22c-.09.28.19.43.62.33l.28-.1c.28-.1.51-.2.69-.3.17-.1.3-.2.38-.3.08-.1.12-.2.13-.29a.374.374 0 0 0-.06-.25.606.606 0 0 0-.19-.2.853.853 0 0 0-.25-.13.578.578 0 0 0-.27-.06zM134.66 77.38c-.31 0-.65.47-.75 1.03l-.09.51c-.09.51-.16.99-.2 1.44-.01.19-.02.35 0 .48.01.13.04.23.08.3.04.07.09.13.15.16s.14.05.22.05c.13 0 .27-.03.43-.07l.16-.05c.18-.07.36-.15.41-.18l.04-.01c.04-.01.06-.02.09-.02.04 0 .07.02.08.07s.02.12.03.23c.01.11.02.26.03.45l.01.19c.04.29.07.54.08.56v.04c0 .02-.01.08-.03.15l-.04.03-.04.03c-.1.04-.33.14-.53.21l-.19.07c-.19.07-.38.14-.56.2-.19.06-.36.11-.53.15-.17.04-.32.06-.44.06-.68 0-1.16-.2-1.43-.6l-.28-.41c-.02-.8-.03-1.58-.02-1.74l.02-.15.02-.15c.03-.18.11-.75.2-1.27l.06-.44.06-.44c.07-.45-.02-.82-.19-.82s-.49 0-.7-.01l-.1-.02c-.1-.02-.14-.07-.14-.14 0-.02.03-.07.07-.16.05-.09.11-.19.18-.31.07-.12.15-.25.23-.39.08-.14.16-.27.24-.39.08-.12.14-.22.2-.31l.06-.09c.03-.04.15-.07.26-.07s.27-.31.33-.69l.04-.25c.04-.25.08-.46.1-.63.03-.17.05-.3.07-.39.02-.09.04-.16.05-.2.02-.04.04-.07.06-.09l.02-.01c.04-.01.23-.06.43-.11l.17-.04.52-.12c.17-.04.35-.09.53-.14l.18-.05c.21-.07.39-.13.4-.13h.07c.01.03.02.06.02.07s-.05.3-.1.65l-.08.48-.08.48c-.1.63.18 1.15.63 1.15s.84 0 .88.01l.03.03c.03.03.04.07.04.14 0 .03-.03.11-.09.26l-.06.15c-.11.24-.25.58-.32.74s-.16.36-.2.43l-.03.03-.03.03c-.09.01-.42.02-.73.03zM141.01 77.33c-.31 0-.65.47-.75 1.03l-.09.51c-.09.51-.16.99-.2 1.44-.01.19-.02.35 0 .48.01.13.04.23.08.3.04.07.09.13.15.16s.14.05.22.05c.13 0 .27-.03.43-.07l.16-.05c.18-.07.36-.15.41-.18l.04-.01c.04-.01.06-.02.09-.02.04 0 .07.02.08.07s.02.12.03.23c.01.11.02.26.03.45l.01.19c.04.29.07.54.08.56v.04c0 .02-.01.08-.03.15l-.04.03-.04.03c-.1.04-.33.14-.53.22l-.19.07c-.19.07-.38.14-.56.2-.19.06-.36.11-.53.15-.17.04-.32.06-.44.06-.68 0-1.16-.2-1.43-.6l-.28-.41c-.02-.8-.03-1.58-.02-1.74l.02-.15.02-.15c.03-.18.11-.75.2-1.27l.06-.44.06-.44c.07-.45-.02-.82-.19-.82s-.49 0-.7-.01l-.1-.02c-.1-.02-.14-.07-.14-.14 0-.02.03-.07.07-.16.05-.09.11-.19.18-.31.07-.12.15-.25.23-.39.08-.14.16-.27.24-.39.08-.12.14-.23.2-.32l.06-.09c.03-.04.15-.07.26-.07s.27-.31.33-.69l.04-.25c.04-.25.08-.46.1-.63.03-.17.05-.3.07-.39.02-.09.04-.16.05-.2.02-.04.04-.07.06-.08l.02-.01c.04-.01.23-.06.43-.11l.17-.04.52-.12c.17-.04.35-.09.53-.14l.18-.05c.21-.07.39-.13.4-.13h.07c.01.03.02.06.02.07s-.05.3-.1.65l-.08.48-.08.48c-.1.64.18 1.15.63 1.15s.84 0 .88.01l.03.03c.03.03.04.07.04.14 0 .03-.03.11-.09.26l-.06.15c-.11.24-.25.58-.32.74s-.16.36-.2.43l-.03.03-.03.03c-.09 0-.42.02-.73.02zM147.34 74.75c.39 0 .73.08 1.03.25.3.17.55.4.76.67.2.28.35.58.45.93.09.34.13.69.1 1.03-.02.3-.12.61-.3.92-.18.31-.42.58-.71.83-.3.25-.64.45-1.05.6s-.83.23-1.3.24h-.24c-.28-.05-.5.09-.48.31l.07.15c.07.15.17.28.29.37.12.1.26.17.42.21a2.08 2.08 0 0 0 1.07 0c.18-.04.36-.1.53-.17.17-.07.34-.15.5-.23l.16-.08c.16-.09.33-.18.37-.19l.03-.01.03-.01c.03 0 .04.13.02.3l-.01.14c-.01.14-.02.31-.04.52l-.02.2c-.02.26-.04.49-.03.52v.08c0 .06-.05.12-.15.19-.09.07-.22.14-.37.22-.15.07-.32.15-.51.22s-.38.13-.58.19c-.2.06-.38.1-.56.14-.18.03-.34.05-.47.05-.44 0-.85-.09-1.25-.27-.4-.18-.74-.44-1.04-.78-.29-.34-.51-.76-.67-1.25s-.21-1.04-.16-1.65c.05-.64.19-1.25.41-1.81.23-.56.52-1.05.88-1.47.36-.42.78-.75 1.26-1 .5-.23 1.01-.36 1.56-.36zm-.22 1.96c-.17 0-.32.04-.47.13-.15.09-.28.21-.41.37-.13.16-.24.35-.35.58l-.1.22c-.09.28.19.43.62.33l.28-.1c.28-.1.51-.2.69-.3.17-.1.3-.2.38-.3.08-.1.12-.2.13-.29a.374.374 0 0 0-.06-.25.606.606 0 0 0-.19-.2.853.853 0 0 0-.25-.13.604.604 0 0 0-.27-.06zM156.42 75.77c-.15.63-.36 1.13-.46 1.12l-.1-.01a2.644 2.644 0 0 0-.88.04c-.19.04-.36.11-.53.22-.17.11-.31.26-.44.45s-.22.43-.27.73c-.06.36-.1.66-.14.9-.04.23-.06.42-.08.57-.02.15-.04.27-.05.36l-.01.09c-.01.09-.03.2-.03.24l-.01.09c-.01.09-.03.19-.05.31-.02.12-.04.25-.06.38-.02.14-.04.26-.06.38-.02.12-.04.22-.05.31s-.02.14-.02.16v.18c0 .04-.02.07-.05.1l-.03.03c-.1.04-.55.23-1.01.42s-.88.38-.94.4l-.07.03c-.08.03-.15.04-.22.05a.27.27 0 0 1-.15-.05l-.04-.03c-.01-.08.12-1.03.28-2.12l.5-3.34c.16-1.09.32-2.1.34-2.25l.02-.06.02-.06c.07-.03.47-.14.89-.24l.4-.09.4-.09c.42-.15.79-.26.82-.26v.01c0 .01.01.03 0 .06 0 .01 0 .02-.01.04s-.01.06-.03.13c-.02.07-.04.17-.07.31l-.03.14c-.05.25.1.29.33.1l.24-.15c.24-.15.47-.28.71-.38.23-.11.46-.19.68-.26l.22-.06c.16-.03.19.47.04 1.1zM161.12 76.64c.1-.67.19-1.34.27-2l.08-.66c.1-.75.19-1.49.22-1.64l.02-.06.02-.06c.07-.03.47-.14.89-.23l.39-.09.39-.09c.43-.14.79-.26.81-.27h.06c.01.04-.12.96-.28 2.05l-1 6.56c-.17 1.09-.3 2.01-.31 2.04s-.01.1-.02.14l-.03.03-.03.03c-.1.04-.55.23-1 .43s-.87.38-.93.41l-.07.03c-.08.03-.15.04-.22.04-.06 0-.11-.02-.15-.05l-.04-.04c-.01-.08-.01-.15-.01-.16s.06-.46.14-1l.07-.47c.07-.47.14-.96.21-1.47.07-.51.15-1.04.24-1.61.09-.57.18-1.19.28-1.86zM171.33 79.34c-.18 1.08-.34 1.99-.34 2.01v.29l.03.08c.03.08.06.15.09.2.03.05.07.09.1.12s.04.06.04.08l-.01.07c-.11.07-.57.32-1.04.55s-.86.43-.87.44h-.02c-.03 0-.06-.03-.09-.1a1.38 1.38 0 0 1-.07-.26c-.02-.11-.04-.22-.06-.34l-.02-.12c-.02-.12-.29.07-.61.41l-.31.17c-.31.17-.61.25-.9.26-.34 0-.67-.09-.98-.27-.31-.18-.58-.43-.8-.77s-.4-.74-.51-1.21c-.11-.47-.15-1.01-.1-1.6.05-.7.19-1.34.4-1.92.21-.58.48-1.08.8-1.5.32-.42.68-.75 1.08-.98.4-.23.81-.35 1.24-.35.3 0 .59.07.85.22l.26.15c.26.23.49.31.53.16l.01-.09c.01-.09.03-.16.04-.21.02-.05.05-.08.09-.1l.04-.02c.09-.01.43-.07.75-.12l.29-.04.29-.04c.34-.03.47.83.29 1.92l-.49 2.91zm-2.14.3c.12-.6.26-1.34.32-1.63l.03-.25.03-.25c.03-.24 0-.49-.07-.55l-.07-.06c-.07-.06-.15-.12-.23-.18a.906.906 0 0 0-.26-.13.943.943 0 0 0-.3-.05c-.22 0-.41.09-.57.26-.16.17-.3.38-.41.63-.11.25-.2.52-.26.8s-.1.53-.12.74c-.06.78-.02 1.34.12 1.7.14.36.36.54.66.54.12 0 .26-.04.42-.13l.16-.08c.19-.15.43-.76.55-1.36zM177.22 77.08c-.31 0-.65.47-.76 1.03l-.09.51c-.09.51-.16.99-.2 1.44-.01.19-.02.35 0 .48.01.13.04.23.08.3.04.07.09.13.15.16s.13.05.22.05c.13 0 .27-.03.43-.07l.16-.05c.18-.07.36-.15.41-.18l.04-.01c.04-.01.07-.02.09-.02.04 0 .07.02.08.07.01.04.02.12.02.23.01.11.02.26.03.45l.01.19c.04.29.07.54.08.56v.07c0 .07-.03.12-.08.15s-.04.03-.04.03c-.09.04-.33.14-.52.22l-.19.07c-.19.07-.38.14-.56.2-.19.06-.36.11-.53.15-.17.04-.32.06-.44.06-.68 0-1.16-.2-1.43-.6l-.28-.41c-.02-.8-.03-1.58-.02-1.74l.02-.15.02-.15c.03-.18.11-.75.2-1.27l.06-.44.06-.44c.07-.45-.02-.82-.19-.82s-.49 0-.7-.01l-.09-.02c-.1-.02-.14-.07-.14-.14 0-.02.03-.07.07-.16.05-.09.11-.19.18-.31.07-.12.15-.25.23-.39.08-.14.16-.27.24-.39.08-.12.14-.23.2-.32l.06-.09c.03-.04.15-.07.26-.07s.27-.31.33-.69l.04-.25c.04-.25.08-.46.1-.63.03-.17.05-.3.07-.39.02-.09.04-.16.05-.2.02-.04.04-.07.06-.08l.02-.01c.04-.01.23-.06.43-.11l.17-.04.52-.12c.17-.04.35-.09.53-.14l.18-.05c.21-.07.39-.13.4-.13h.07c.01.03.02.06.02.07s-.05.3-.1.65l-.08.48-.08.48c-.1.64.18 1.15.63 1.15s.84 0 .88.01l.03.03c.03.03.04.07.04.14 0 .03-.03.11-.09.26l-.06.15c-.11.24-.25.58-.32.74s-.16.36-.2.43l-.03.03-.03.03c-.08 0-.41.01-.72.02zM183.55 74.49c.39 0 .73.08 1.03.25.3.17.55.39.76.67.2.28.35.58.45.93.09.34.13.69.1 1.03-.02.3-.12.61-.3.92-.18.31-.42.59-.71.83-.3.25-.65.45-1.05.6s-.83.23-1.3.24h-.24c-.28-.05-.5.09-.48.31l.07.15c.07.15.17.28.29.37.12.1.26.17.42.21a2.08 2.08 0 0 0 1.07 0c.18-.04.36-.1.53-.17.17-.07.34-.15.5-.23l.16-.09c.16-.09.33-.18.37-.19l.03-.01.03-.01c.03 0 .04.13.02.3l-.01.14c-.01.14-.02.31-.04.52l-.02.2c-.02.26-.04.49-.03.52v.08c0 .06-.05.12-.15.19-.09.07-.22.14-.37.22-.15.07-.32.15-.51.22s-.38.13-.58.19c-.2.06-.38.1-.56.14-.18.03-.34.05-.47.05-.44 0-.86-.09-1.25-.27-.4-.18-.74-.44-1.04-.78-.29-.34-.51-.76-.67-1.25a4.38 4.38 0 0 1-.16-1.65c.05-.64.19-1.25.41-1.81.23-.56.52-1.05.88-1.47.36-.42.78-.75 1.26-1 .5-.22 1.01-.34 1.56-.35zm-.22 1.96c-.17 0-.32.04-.47.13-.15.09-.28.21-.41.37-.13.16-.24.35-.34.58l-.1.22c-.09.28.19.43.62.33l.28-.1c.28-.1.51-.2.69-.3.17-.1.3-.2.38-.3.08-.1.12-.2.13-.29a.374.374 0 0 0-.06-.25.606.606 0 0 0-.19-.2.853.853 0 0 0-.25-.13.882.882 0 0 0-.28-.06zM194.54 76.95c-.31 0-.65.47-.76 1.03l-.09.51c-.09.51-.16.99-.2 1.44-.01.19-.02.35 0 .48.01.13.04.23.08.3.04.07.09.13.15.16s.13.05.22.05c.13 0 .27-.03.43-.07l.16-.05c.18-.07.36-.16.41-.18l.04-.01c.04-.01.07-.02.09-.02.04 0 .07.02.08.07.01.04.02.12.02.23.01.11.02.26.03.45l.01.19c.04.29.07.54.08.56v.07c0 .07-.03.12-.08.15s-.04.03-.04.03c-.09.04-.33.14-.52.22l-.19.07c-.19.07-.38.14-.56.2-.19.06-.36.11-.53.15-.17.04-.32.06-.44.06-.68 0-1.16-.2-1.43-.6l-.28-.41c-.02-.8-.03-1.58-.02-1.74l.02-.15.02-.15c.03-.18.11-.75.2-1.27l.06-.44.06-.44c.07-.45-.02-.82-.19-.82s-.49 0-.7-.01l-.09-.02c-.1-.02-.14-.07-.14-.14 0-.02.03-.07.07-.16.05-.09.11-.19.18-.31.07-.12.15-.25.23-.39.08-.14.16-.27.24-.39.08-.12.14-.23.2-.31l.06-.09c.03-.04.15-.07.26-.07s.27-.31.33-.69l.04-.25c.04-.25.08-.46.1-.63.03-.17.05-.3.07-.39.02-.09.04-.16.05-.2.02-.04.04-.07.06-.08l.02-.01c.04-.01.23-.06.43-.11l.17-.04.52-.12c.17-.04.35-.09.53-.14l.18-.05c.21-.07.39-.13.4-.13h.07c.01.03.02.06.02.07s-.05.3-.1.65l-.08.48-.08.48c-.1.64.18 1.15.63 1.15s.84 0 .88.01l.03.03c.03.03.04.07.04.14 0 .03-.03.11-.09.27l-.06.15c-.11.24-.25.58-.32.74s-.16.36-.2.43l-.03.03-.03.03c-.08-.02-.41 0-.72 0zM197.85 73.88c.15-1.09.28-2.01.28-2.04v-.02-.07c0-.04.02-.08.05-.11l.03-.03c.1-.04.58-.18 1.06-.32s.92-.27.98-.28l.08-.04a.63.63 0 0 1 .22-.05h.14c.03.13.05.28.04.34l-.03.19c-.03.19-.06.43-.1.71-.04.28-.09.59-.14.93-.05.34-.1.66-.15.96-.05.3-.09.57-.13.8l-.04.23c-.02.12.14.11.36-.03l.22-.12c.21-.11.43-.21.65-.3.21-.08.43-.15.64-.2.21-.05.42-.07.61-.07.25 0 .47.04.68.12.21.08.38.23.53.42.14.2.25.46.32.78s.08.71.05 1.18c-.01.12-.02.24-.04.37l-.01.12c-.02.14-.15.94-.29 1.77s-.28 1.7-.31 1.93l-.02.22-.02.22c-.02.26-.04.5-.04.54v.1c0 .04-.02.08-.05.1l-.03.02c-.1.04-.52.19-.94.33l-.87.29-.08.03a.63.63 0 0 1-.22.05c-.07 0-.12-.02-.15-.05l-.03-.04c0-.1.04-.48.1-.85l.04-.23c.04-.22.06-.41.08-.54.02-.14.04-.24.05-.31s.02-.14.03-.19c.01-.06.02-.12.03-.19.01-.07.03-.18.05-.31s.05-.32.08-.55c.04-.23.08-.52.14-.89.03-.2.06-.39.1-.58.03-.2.06-.37.07-.53.02-.21.02-.39.02-.56 0-.17-.03-.31-.06-.43s-.09-.21-.17-.28a.436.436 0 0 0-.3-.1c-.09 0-.22.03-.39.08s-.33.13-.5.25c-.17.11-.32.26-.46.45s-.23.41-.26.68c-.06.38-.11.69-.15.93-.04.24-.07.44-.09.6-.02.16-.04.28-.06.38-.01.09-.03.18-.04.26-.01.02-.02.08-.03.18-.02.1-.04.21-.06.34-.02.13-.05.27-.07.42-.02.15-.04.29-.07.42-.02.13-.04.25-.05.34-.01.09-.02.16-.02.18v.18c0 .04-.02.07-.05.1l-.03.03c-.1.04-.55.22-1 .41s-.87.36-.93.39l-.08.03c-.08.03-.15.04-.22.05-.06 0-.11-.02-.15-.06l-.04-.04c0-.09.12-1.06.27-2.15l.97-6.89zM212.02 79.05c-.18 1.08-.34 1.99-.34 2.01v.29l.03.08c.03.08.06.15.09.2s.07.09.1.12.04.06.04.08v.07c-.11.07-.57.32-1.04.55s-.86.43-.87.44h-.02c-.03 0-.06-.03-.09-.1s-.05-.16-.07-.26-.04-.22-.06-.34l-.02-.12c-.02-.12-.29.07-.61.41l-.31.17c-.31.17-.61.26-.9.26-.34 0-.67-.09-.98-.27a2.44 2.44 0 0 1-.8-.77c-.23-.33-.4-.74-.51-1.21-.11-.47-.15-1.01-.1-1.6.05-.7.19-1.34.4-1.92.21-.58.48-1.08.8-1.5s.68-.74 1.08-.97c.4-.23.82-.35 1.25-.35.3 0 .59.07.85.22l.26.15c.26.23.49.31.53.16l.01-.09c.01-.09.03-.16.04-.21.02-.05.05-.08.09-.1l.04-.02c.09-.01.43-.07.75-.12l.29-.04.29-.04c.34-.03.47.83.29 1.92l-.51 2.9zm-2.15.31c.12-.6.26-1.34.32-1.64l.03-.25.03-.25c.03-.24 0-.49-.07-.55l-.07-.06c-.07-.06-.15-.12-.23-.18-.08-.06-.17-.1-.26-.13s-.19-.05-.3-.05c-.22 0-.41.09-.57.26-.16.17-.3.38-.41.64-.11.25-.2.52-.26.8s-.1.53-.12.74c-.06.78-.02 1.34.12 1.7.14.36.36.54.66.54.12 0 .26-.04.42-.13l.16-.08c.2-.16.44-.76.55-1.36zM219.42 82.47c-.42.14-.81.27-.86.29l-.08.03a.63.63 0 0 1-.22.05c-.06 0-.1-.02-.14-.05l-.04-.03c-.01-.08-.01-.15-.01-.17s.04-.24.08-.51l.03-.18c.03-.19.06-.35.08-.5.03-.15.05-.3.07-.45.02-.15.05-.32.08-.52s.07-.44.11-.71c.04-.27.1-.61.16-1.02.04-.25.08-.51.11-.77.04-.26.06-.5.08-.72.01-.15.01-.28 0-.41a.947.947 0 0 0-.07-.32.463.463 0 0 0-.18-.21.556.556 0 0 0-.3-.07c-.09 0-.22.03-.39.08s-.34.13-.51.25c-.17.11-.33.26-.47.45-.14.19-.23.41-.27.68-.05.36-.1.67-.14.93-.04.26-.07.48-.11.66-.03.18-.05.33-.07.44l-.02.11c-.01.1-.03.21-.04.25l-.01.09c-.01.09-.03.19-.05.32s-.04.25-.06.39c-.02.14-.04.27-.06.39-.02.12-.04.23-.05.32-.01.09-.02.14-.02.16v.18c0 .04-.02.07-.05.1l-.03.03c-.1.04-.55.22-1.01.41s-.88.36-.94.39l-.08.03c-.08.03-.15.04-.22.05-.06 0-.1-.02-.14-.05l-.04-.03c-.01-.08.12-1.03.29-2.12l.54-3.57c.16-1.09.32-2.1.35-2.25l.02-.06.02-.06c.07-.03.47-.14.88-.24l.4-.09.4-.09c.42-.15.79-.26.82-.26l.01.01c0 .01.01.03 0 .05 0 .01 0 .03-.01.04 0 .02-.01.06-.03.13s-.04.17-.07.31l-.03.14c-.05.24.16.28.48.09l.25-.12c.25-.12.49-.22.71-.29.22-.07.43-.11.62-.14.19-.02.37-.03.54-.04.57 0 .97.2 1.2.62l.23.42c.01.81.01 1.58 0 1.71l-.01.13-.01.12c-.02.14-.16.98-.3 1.85s-.29 1.76-.32 1.98l-.02.17-.02.17c-.02.24-.04.47-.04.5v.1c0 .04-.02.08-.05.1l-.03.03c-.1.01-.53.16-.94.3zM231.48 82.38c-.42.14-.81.27-.86.29l-.08.03a.63.63 0 0 1-.22.05c-.06 0-.1-.02-.14-.05l-.04-.03c-.01-.08-.01-.15-.01-.17s.04-.24.08-.51l.03-.18c.03-.19.06-.35.08-.5.03-.15.05-.3.07-.45.02-.15.05-.32.08-.52s.07-.44.11-.71c.04-.27.1-.61.16-1.02.04-.25.08-.51.11-.77.04-.26.06-.5.08-.72.01-.15.01-.28 0-.41a.947.947 0 0 0-.07-.32.463.463 0 0 0-.18-.21.556.556 0 0 0-.3-.07c-.09 0-.22.03-.39.08s-.34.13-.51.25c-.17.11-.33.26-.47.45-.14.19-.23.41-.27.68-.05.36-.1.67-.14.93-.04.26-.07.48-.11.66-.03.18-.05.33-.07.44l-.02.11c-.01.1-.03.21-.04.25l-.01.09c-.01.09-.03.19-.05.32s-.04.25-.06.39c-.02.14-.04.27-.06.39-.02.12-.04.23-.05.32-.01.09-.02.14-.02.16v.18c0 .04-.02.07-.05.1l-.03.03c-.1.04-.55.22-1.01.41s-.88.36-.94.39l-.08.03c-.08.03-.15.04-.22.05-.06 0-.1-.02-.14-.05l-.04-.03c-.01-.08.12-1.03.29-2.12l.54-3.57c.16-1.09.32-2.1.35-2.25l.02-.06.02-.06c.07-.03.47-.14.88-.24l.4-.09.4-.09c.42-.15.79-.26.82-.26l.01.01c0 .01.01.03 0 .05 0 .01 0 .03-.01.04 0 .02-.01.06-.03.13-.01.07-.04.17-.07.31l-.03.14c-.05.24.16.28.48.09l.25-.12c.25-.12.49-.22.71-.29.22-.07.43-.11.62-.14.19-.02.37-.03.54-.04.57 0 .97.2 1.2.62l.23.42c.01.81.01 1.58 0 1.71l-.01.13-.01.12c-.02.14-.16.98-.3 1.85s-.29 1.76-.32 1.98l-.02.17-.02.17c-.02.24-.04.47-.04.5v.1c0 .04-.02.08-.05.1l-.03.03c-.1.01-.53.16-.94.3zM238.66 74.1c.39 0 .73.08 1.03.25s.55.4.76.67c.2.28.35.58.45.93.09.34.13.69.1 1.03-.02.3-.12.61-.3.92s-.42.59-.71.83c-.3.25-.65.45-1.05.6-.4.15-.83.23-1.3.24h-.24c-.28-.05-.5.09-.48.31l.07.15c.07.15.17.28.29.37.12.1.26.17.42.21a2.08 2.08 0 0 0 1.07 0c.18-.04.36-.1.53-.17.17-.07.34-.15.5-.23l.16-.08c.16-.09.33-.18.37-.19l.03-.01.03-.01c.03 0 .04.13.02.3l-.01.14c-.01.14-.02.31-.04.52l-.02.2c-.02.26-.04.49-.03.52v.08c0 .06-.05.12-.15.19-.09.07-.22.14-.37.21-.15.07-.32.15-.51.22s-.38.13-.58.19-.38.1-.56.14-.34.05-.47.05c-.44 0-.86-.08-1.25-.27-.4-.18-.74-.44-1.04-.78-.29-.34-.51-.76-.67-1.25a4.38 4.38 0 0 1-.16-1.65c.05-.64.19-1.25.41-1.81.23-.56.52-1.05.88-1.47.36-.42.78-.75 1.26-.99.49-.23 1.01-.35 1.56-.36zm-.22 1.96c-.17 0-.32.04-.47.13-.15.09-.28.21-.41.37-.13.16-.24.35-.34.58l-.1.22c-.09.28.19.43.62.33l.28-.1c.28-.1.51-.2.69-.3.17-.1.3-.2.38-.3.08-.1.12-.2.13-.29a.374.374 0 0 0-.06-.25.606.606 0 0 0-.19-.2.853.853 0 0 0-.25-.13.939.939 0 0 0-.28-.06zM247.03 74.34c.05-.12.11-.25.14-.29H247.24c.01 0 .28.12.61.26l.31.09.31.09c.34.09.67.2.73.24l-.01.09v.06c-.05.13-.47 1.05-.93 2.05l-1.32 2.84c-.46 1-.87 1.89-.91 1.97l-.03.05c-.03.05-.06.1-.08.13-.03.03-.05.06-.08.07l-.03.01c-.04.01-.36.1-.71.19l-.32.1-.32.1c-.38.15-.7.27-.7.27h-.03c-.01 0-.04 0-.06-.01l-.01-.02-.01-.02c-.01-.02-.05-.25-.1-.51l-.05-.33c-.05-.33-.11-.71-.17-1.12-.06-.41-.13-.85-.19-1.32-.07-.47-.13-.94-.2-1.42s-.14-.96-.2-1.43l-.07-.47c-.07-.48-.15-.99-.17-1.13v-.06-.07c.06-.04.4-.14.76-.24l.35-.09.35-.09c.36-.15.66-.27.68-.27h.07c.01.04.1.97.2 2.07l.08.96c.09 1.1.2 1.92.24 1.83l.06-.16c.06-.16.13-.34.22-.56.09-.21.18-.46.28-.71.1-.26.21-.53.32-.8.11-.27.21-.54.32-.81.11-.27.21-.52.3-.75l.24-.61.06-.18zM253.76 74c.39 0 .73.08 1.03.25.3.17.55.39.76.67.2.28.35.58.45.93.09.34.13.69.1 1.03-.02.3-.12.61-.3.92s-.42.59-.71.83c-.3.25-.65.45-1.05.6-.4.15-.83.23-1.3.24h-.24c-.28-.05-.5.09-.48.31l.07.15c.07.15.17.28.29.37.12.1.26.17.42.21.16.05.33.07.5.07.2 0 .38-.02.57-.07.18-.04.36-.1.53-.17.17-.07.34-.15.5-.23l.16-.08c.16-.09.33-.18.37-.19l.03-.01.03-.01c.03 0 .04.13.02.3l-.01.14c-.01.14-.02.31-.04.52l-.02.2c-.02.26-.04.49-.03.52v.08c0 .06-.05.12-.15.19-.09.07-.22.14-.37.21-.15.07-.32.15-.51.22s-.38.13-.58.19-.38.1-.56.14-.34.05-.47.05c-.44 0-.86-.08-1.25-.27-.4-.18-.74-.44-1.04-.78-.29-.34-.51-.76-.67-1.25a4.38 4.38 0 0 1-.16-1.65c.05-.64.19-1.25.41-1.81.23-.56.52-1.05.88-1.47.36-.42.78-.75 1.26-1 .5-.22 1.01-.35 1.56-.35zm-.22 1.96c-.17 0-.32.04-.47.13-.15.09-.28.21-.41.37-.13.16-.24.35-.34.58l-.1.22c-.09.28.19.43.62.33l.28-.1c.28-.1.51-.2.69-.3.17-.1.3-.2.38-.3.08-.1.12-.2.13-.29a.374.374 0 0 0-.06-.25.606.606 0 0 0-.19-.2.853.853 0 0 0-.25-.13.671.671 0 0 0-.28-.06zM262.84 75.02c-.15.63-.36 1.13-.45 1.12l-.1-.01a2.644 2.644 0 0 0-.88.04c-.19.04-.36.11-.53.22-.17.11-.31.26-.44.45s-.22.44-.28.73c-.06.36-.1.66-.14.9s-.06.42-.08.57c-.02.15-.04.27-.05.36l-.01.09c-.01.09-.02.2-.03.24l-.01.09c-.01.09-.03.19-.05.31-.02.12-.04.25-.06.38-.02.14-.04.26-.06.38-.02.12-.04.22-.05.31s-.02.14-.02.16v.18c0 .04-.02.07-.05.1l-.03.03c-.1.04-.55.23-1.01.42s-.88.38-.94.4l-.07.03c-.08.03-.15.04-.22.04a.27.27 0 0 1-.15-.05l-.04-.03c-.01-.08.12-1.03.28-2.12l.5-3.34c.16-1.09.32-2.1.34-2.25l.02-.06.02-.06c.07-.03.47-.14.89-.24l.4-.09.4-.09c.42-.15.79-.26.82-.26v.01c0 .01.01.03 0 .06 0 .01 0 .02-.01.04 0 .02-.01.06-.03.13-.02.07-.04.17-.07.31l-.03.14c-.05.25.1.29.33.11l.24-.15c.24-.15.47-.28.71-.38.24-.11.46-.19.68-.25l.22-.06c.16-.04.19.46.04 1.09z"/></g><path class="st4" d="M115.74 84.45c-.22.06-.44.11-.5.12h-.16c-.02-.15-.04-.3-.04-.33v-.02-.02c.01-.03.14-.95.3-2.04l.93-6.46c.16-1.09.29-1.99.29-2.01v-.01c0-.01 0-.03.01-.04v-.05-.04c0-.04.02-.08.05-.11l.03-.03c.1-.04.58-.18 1.06-.32s.92-.27.98-.29l.07-.04a.63.63 0 0 1 .22-.05c.05 0 .1.01.15.04l.04.03c.01.08.01.15.01.16v.02c0 .01-.01.08-.03.15l-.03.19c-.03.19-.07.42-.11.7-.04.27-.09.56-.13.88-.05.31-.09.61-.13.88-.04.27-.08.5-.11.7l-.03.19c-.01.07.26-.06.61-.3l.33-.16c.33-.16.65-.24.97-.25.42 0 .77.1 1.06.3.29.21.52.48.69.83.17.34.29.74.35 1.19.06.45.07.92.04 1.4-.03.39-.09.78-.18 1.17-.09.39-.2.76-.34 1.12s-.31.7-.5 1.01c-.19.32-.41.59-.64.82-.23.23-.49.42-.77.55-.28.13-.57.2-.88.21-.38 0-.71-.1-1.01-.29l-.3-.2c-.28-.32-.53-.48-.54-.36l-.01.07c-.01.07-.03.12-.05.16-.03.04-.06.07-.11.09l-.05.02c-.09.03-.22.07-.28.09l-.11.03c-.11.03-.25.07-.41.11-.16.04-.34.09-.53.14l-.21.05zm2.29-4.1c-.12.79-.17 1.52-.13 1.63l.07.1c.07.1.15.19.24.27s.2.15.31.2c.11.05.23.07.36.07.17 0 .34-.08.51-.25.17-.17.32-.39.46-.67s.25-.6.34-.95c.09-.36.15-.73.18-1.11.02-.24.02-.46 0-.67-.02-.21-.06-.39-.12-.55a.93.93 0 0 0-.25-.37.617.617 0 0 0-.41-.14c-.26 0-.51.1-.75.29l-.23.19c-.2.29-.47 1.17-.58 1.96zM128.02 75.89c.39 0 .73.08 1.03.25.3.17.55.4.76.67.2.28.35.59.45.93.09.34.13.69.1 1.03-.02.3-.12.61-.3.92s-.42.59-.71.83c-.3.25-.65.45-1.05.6-.4.15-.83.23-1.3.24h-.24c-.28-.05-.5.09-.48.31l.07.15c.07.15.17.28.29.37.12.1.26.17.42.21.16.05.33.07.5.07.2 0 .38-.02.57-.07.18-.04.36-.1.53-.17.17-.07.34-.15.5-.23l.16-.08c.16-.09.33-.18.37-.19l.03-.01.03-.01c.03 0 .04.13.02.3l-.01.14c-.01.14-.02.31-.04.52l-.02.2c-.02.26-.04.49-.03.52v.08c0 .06-.05.12-.15.19-.09.07-.22.14-.37.21-.15.07-.32.15-.51.22s-.38.13-.58.19c-.2.06-.38.1-.56.14-.18.03-.34.05-.47.05-.44 0-.85-.09-1.25-.27-.4-.18-.74-.44-1.04-.78-.29-.34-.51-.76-.67-1.25a4.38 4.38 0 0 1-.16-1.65c.05-.64.19-1.25.41-1.81.23-.56.52-1.05.88-1.47.36-.42.78-.75 1.26-.99a3.64 3.64 0 0 1 1.56-.36zm-.23 1.96c-.17 0-.32.05-.47.13-.15.09-.28.21-.41.37-.13.16-.24.35-.35.58l-.1.22c-.09.28.19.43.62.33l.28-.1c.28-.1.51-.2.69-.3.17-.1.3-.2.38-.3.08-.1.12-.2.13-.29a.374.374 0 0 0-.06-.25.606.606 0 0 0-.19-.2.853.853 0 0 0-.25-.13.578.578 0 0 0-.27-.06zM135.66 78.38c-.31 0-.65.47-.75 1.03l-.09.51c-.09.51-.16.99-.2 1.44-.01.19-.02.35 0 .48.01.13.04.23.08.3.04.07.09.13.15.16s.14.05.22.05c.13 0 .27-.03.43-.07l.16-.05c.18-.07.36-.15.41-.18l.04-.01c.04-.01.06-.02.09-.02.04 0 .07.02.08.07s.02.12.03.23c.01.11.02.26.03.45l.01.19c.04.29.07.54.08.56v.04c0 .02-.01.08-.03.15l-.04.03-.04.03c-.1.04-.33.14-.53.21l-.19.07c-.19.07-.38.14-.56.2-.19.06-.36.11-.53.15-.17.04-.32.06-.44.06-.68 0-1.16-.2-1.43-.6l-.28-.41c-.02-.8-.03-1.58-.02-1.74l.02-.15.02-.15c.03-.18.11-.75.2-1.27l.06-.44.06-.44c.07-.45-.02-.82-.19-.82s-.49 0-.7-.01l-.1-.02c-.1-.02-.14-.07-.14-.14 0-.02.03-.07.07-.16.05-.09.11-.19.18-.31.07-.12.15-.25.23-.39.08-.14.16-.27.24-.39.08-.12.14-.22.2-.31l.06-.09c.03-.04.15-.07.26-.07s.27-.31.33-.69l.04-.25c.04-.25.08-.46.1-.63.03-.17.05-.3.07-.39.02-.09.04-.16.05-.2.02-.04.04-.07.06-.09l.02-.01c.04-.01.23-.06.43-.11l.17-.04.52-.12c.17-.04.35-.09.53-.14l.18-.05c.21-.07.39-.13.4-.13h.07c.01.03.02.06.02.07s-.05.3-.1.65l-.08.48-.08.48c-.1.63.18 1.15.63 1.15s.84 0 .88.01l.03.03c.03.03.04.07.04.14 0 .03-.03.11-.09.26l-.06.15c-.11.24-.25.58-.32.74s-.16.36-.2.43l-.03.03-.03.03c-.09.01-.42.02-.73.03zM142.01 78.33c-.31 0-.65.47-.75 1.03l-.09.51c-.09.51-.16.99-.2 1.44-.01.19-.02.35 0 .48.01.13.04.23.08.3.04.07.09.13.15.16s.14.05.22.05c.13 0 .27-.03.43-.07l.16-.05c.18-.07.36-.15.41-.18l.04-.01c.04-.01.06-.02.09-.02.04 0 .07.02.08.07s.02.12.03.23c.01.11.02.26.03.45l.01.19c.04.29.07.54.08.56v.04c0 .02-.01.08-.03.15l-.04.03-.04.03c-.1.04-.33.14-.53.22l-.19.07c-.19.07-.38.14-.56.2-.19.06-.36.11-.53.15-.17.04-.32.06-.44.06-.68 0-1.16-.2-1.43-.6l-.28-.41c-.02-.8-.03-1.58-.02-1.74l.02-.15.02-.15c.03-.18.11-.75.2-1.27l.06-.44.06-.44c.07-.45-.02-.82-.19-.82s-.49 0-.7-.01l-.1-.02c-.1-.02-.14-.07-.14-.14 0-.02.03-.07.07-.16.05-.09.11-.19.18-.31.07-.12.15-.25.23-.39.08-.14.16-.27.24-.39.08-.12.14-.23.2-.32l.06-.09c.03-.04.15-.07.26-.07s.27-.31.33-.69l.04-.25c.04-.25.08-.46.1-.63.03-.17.05-.3.07-.39.02-.09.04-.16.05-.2.02-.04.04-.07.06-.08l.02-.01c.04-.01.23-.06.43-.11l.17-.04.52-.12c.17-.04.35-.09.53-.14l.18-.05c.21-.07.39-.13.4-.13h.07c.01.03.02.06.02.07s-.05.3-.1.65l-.08.48-.08.48c-.1.64.18 1.15.63 1.15s.84 0 .88.01l.03.03c.03.03.04.07.04.14 0 .03-.03.11-.09.26l-.06.15c-.11.24-.25.58-.32.74s-.16.36-.2.43l-.03.03-.03.03c-.09 0-.42.02-.73.02zM148.34 75.75c.39 0 .73.08 1.03.25.3.17.55.4.76.67.2.28.35.58.45.93.09.34.13.69.1 1.03-.02.3-.12.61-.3.92-.18.31-.42.58-.71.83-.3.25-.64.45-1.05.6s-.83.23-1.3.24h-.24c-.28-.05-.5.09-.48.31l.07.15c.07.15.17.28.29.37.12.1.26.17.42.21a2.08 2.08 0 0 0 1.07 0c.18-.04.36-.1.53-.17.17-.07.34-.15.5-.23l.16-.08c.16-.09.33-.18.37-.19l.03-.01.03-.01c.03 0 .04.13.02.3l-.01.14c-.01.14-.02.31-.04.52l-.02.2c-.02.26-.04.49-.03.52v.08c0 .06-.05.12-.15.19-.09.07-.22.14-.37.22-.15.07-.32.15-.51.22s-.38.13-.58.19c-.2.06-.38.1-.56.14-.18.03-.34.05-.47.05-.44 0-.85-.09-1.25-.27-.4-.18-.74-.44-1.04-.78-.29-.34-.51-.76-.67-1.25s-.21-1.04-.16-1.65c.05-.64.19-1.25.41-1.81.23-.56.52-1.05.88-1.47.36-.42.78-.75 1.26-1 .5-.23 1.01-.36 1.56-.36zm-.22 1.96c-.17 0-.32.04-.47.13-.15.09-.28.21-.41.37-.13.16-.24.35-.35.58l-.1.22c-.09.28.19.43.62.33l.28-.1c.28-.1.51-.2.69-.3.17-.1.3-.2.38-.3.08-.1.12-.2.13-.29a.374.374 0 0 0-.06-.25.606.606 0 0 0-.19-.2.853.853 0 0 0-.25-.13.604.604 0 0 0-.27-.06zM157.42 76.77c-.15.63-.36 1.13-.46 1.12l-.1-.01a2.644 2.644 0 0 0-.88.04c-.19.04-.36.11-.53.22-.17.11-.31.26-.44.45s-.22.43-.27.73c-.06.36-.1.66-.14.9-.04.23-.06.42-.08.57-.02.15-.04.27-.05.36l-.01.09c-.01.09-.03.2-.03.24l-.01.09c-.01.09-.03.19-.05.31-.02.12-.04.25-.06.38-.02.14-.04.26-.06.38-.02.12-.04.22-.05.31s-.02.14-.02.16v.18c0 .04-.02.07-.05.1l-.03.03c-.1.04-.55.23-1.01.42s-.88.38-.94.4l-.07.03c-.08.03-.15.04-.22.05a.27.27 0 0 1-.15-.05l-.04-.03c-.01-.08.12-1.03.28-2.12l.5-3.34c.16-1.09.32-2.1.34-2.25l.02-.06.02-.06c.07-.03.47-.14.89-.24l.4-.09.4-.09c.42-.15.79-.26.82-.26v.01c0 .01.01.03 0 .06 0 .01 0 .02-.01.04s-.01.06-.03.13c-.02.07-.04.17-.07.31l-.03.14c-.05.25.1.29.33.1l.24-.15c.24-.15.47-.28.71-.38.23-.11.46-.19.68-.26l.22-.06c.16-.03.19.47.04 1.1zM162.12 77.64c.1-.67.19-1.34.27-2l.08-.66c.1-.75.19-1.49.22-1.64l.02-.06.02-.06c.07-.03.47-.14.89-.23l.39-.09.39-.09c.43-.14.79-.26.81-.27h.06c.01.04-.12.96-.28 2.05l-1 6.56c-.17 1.09-.3 2.01-.31 2.04s-.01.1-.02.14l-.03.03-.03.03c-.1.04-.55.23-1 .43s-.87.38-.93.41l-.07.03c-.08.03-.15.04-.22.04-.06 0-.11-.02-.15-.05l-.04-.04c-.01-.08-.01-.15-.01-.16s.06-.46.14-1l.07-.47c.07-.47.14-.96.21-1.47.07-.51.15-1.04.24-1.61.09-.57.18-1.19.28-1.86zM172.33 80.34c-.18 1.08-.34 1.99-.34 2.01v.29l.03.08c.03.08.06.15.09.2.03.05.07.09.1.12s.04.06.04.08l-.01.07c-.11.07-.57.32-1.04.55s-.86.43-.87.44h-.02c-.03 0-.06-.03-.09-.1a1.38 1.38 0 0 1-.07-.26c-.02-.11-.04-.22-.06-.34l-.02-.12c-.02-.12-.29.07-.61.41l-.31.17c-.31.17-.61.25-.9.26-.34 0-.67-.09-.98-.27-.31-.18-.58-.43-.8-.77s-.4-.74-.51-1.21c-.11-.47-.15-1.01-.1-1.6.05-.7.19-1.34.4-1.92.21-.58.48-1.08.8-1.5.32-.42.68-.75 1.08-.98.4-.23.81-.35 1.24-.35.3 0 .59.07.85.22l.26.15c.26.23.49.31.53.16l.01-.09c.01-.09.03-.16.04-.21.02-.05.05-.08.09-.1l.04-.02c.09-.01.43-.07.75-.12l.29-.04.29-.04c.34-.03.47.83.29 1.92l-.49 2.91zm-2.14.3c.12-.6.26-1.34.32-1.63l.03-.25.03-.25c.03-.24 0-.49-.07-.55l-.07-.06c-.07-.06-.15-.12-.23-.18a.906.906 0 0 0-.26-.13.943.943 0 0 0-.3-.05c-.22 0-.41.09-.57.26-.16.17-.3.38-.41.63-.11.25-.2.52-.26.8s-.1.53-.12.74c-.06.78-.02 1.34.12 1.7.14.36.36.54.66.54.12 0 .26-.04.42-.13l.16-.08c.19-.15.43-.76.55-1.36zM178.22 78.08c-.31 0-.65.47-.76 1.03l-.09.51c-.09.51-.16.99-.2 1.44-.01.19-.02.35 0 .48.01.13.04.23.08.3.04.07.09.13.15.16s.13.05.22.05c.13 0 .27-.03.43-.07l.16-.05c.18-.07.36-.15.41-.18l.04-.01c.04-.01.07-.02.09-.02.04 0 .07.02.08.07.01.04.02.12.02.23.01.11.02.26.03.45l.01.19c.04.29.07.54.08.56v.07c0 .07-.03.12-.08.15s-.04.03-.04.03c-.09.04-.33.14-.52.22l-.19.07c-.19.07-.38.14-.56.2-.19.06-.36.11-.53.15-.17.04-.32.06-.44.06-.68 0-1.16-.2-1.43-.6l-.28-.41c-.02-.8-.03-1.58-.02-1.74l.02-.15.02-.15c.03-.18.11-.75.2-1.27l.06-.44.06-.44c.07-.45-.02-.82-.19-.82s-.49 0-.7-.01l-.09-.02c-.1-.02-.14-.07-.14-.14 0-.02.03-.07.07-.16.05-.09.11-.19.18-.31.07-.12.15-.25.23-.39.08-.14.16-.27.24-.39.08-.12.14-.23.2-.32l.06-.09c.03-.04.15-.07.26-.07s.27-.31.33-.69l.04-.25c.04-.25.08-.46.1-.63.03-.17.05-.3.07-.39.02-.09.04-.16.05-.2.02-.04.04-.07.06-.08l.02-.01c.04-.01.23-.06.43-.11l.17-.04.52-.12c.17-.04.35-.09.53-.14l.18-.05c.21-.07.39-.13.4-.13h.07c.01.03.02.06.02.07s-.05.3-.1.65l-.08.48-.08.48c-.1.64.18 1.15.63 1.15s.84 0 .88.01l.03.03c.03.03.04.07.04.14 0 .03-.03.11-.09.26l-.06.15c-.11.24-.25.58-.32.74s-.16.36-.2.43l-.03.03-.03.03c-.08 0-.41.01-.72.02zM184.55 75.49c.39 0 .73.08 1.03.25.3.17.55.39.76.67.2.28.35.58.45.93.09.34.13.69.1 1.03-.02.3-.12.61-.3.92-.18.31-.42.59-.71.83-.3.25-.65.45-1.05.6s-.83.23-1.3.24h-.24c-.28-.05-.5.09-.48.31l.07.15c.07.15.17.28.29.37.12.1.26.17.42.21a2.08 2.08 0 0 0 1.07 0c.18-.04.36-.1.53-.17.17-.07.34-.15.5-.23l.16-.09c.16-.09.33-.18.37-.19l.03-.01.03-.01c.03 0 .04.13.02.3l-.01.14c-.01.14-.02.31-.04.52l-.02.2c-.02.26-.04.49-.03.52v.08c0 .06-.05.12-.15.19-.09.07-.22.14-.37.22-.15.07-.32.15-.51.22s-.38.13-.58.19c-.2.06-.38.1-.56.14-.18.03-.34.05-.47.05-.44 0-.86-.09-1.25-.27-.4-.18-.74-.44-1.04-.78-.29-.34-.51-.76-.67-1.25a4.38 4.38 0 0 1-.16-1.65c.05-.64.19-1.25.41-1.81.23-.56.52-1.05.88-1.47.36-.42.78-.75 1.26-1 .5-.22 1.01-.34 1.56-.35zm-.22 1.96c-.17 0-.32.04-.47.13-.15.09-.28.21-.41.37-.13.16-.24.35-.34.58l-.1.22c-.09.28.19.43.62.33l.28-.1c.28-.1.51-.2.69-.3.17-.1.3-.2.38-.3.08-.1.12-.2.13-.29a.374.374 0 0 0-.06-.25.606.606 0 0 0-.19-.2.853.853 0 0 0-.25-.13.882.882 0 0 0-.28-.06zM195.54 77.95c-.31 0-.65.47-.76 1.03l-.09.51c-.09.51-.16.99-.2 1.44-.01.19-.02.35 0 .48.01.13.04.23.08.3.04.07.09.13.15.16s.13.05.22.05c.13 0 .27-.03.43-.07l.16-.05c.18-.07.36-.16.41-.18l.04-.01c.04-.01.07-.02.09-.02.04 0 .07.02.08.07.01.04.02.12.02.23.01.11.02.26.03.45l.01.19c.04.29.07.54.08.56v.07c0 .07-.03.12-.08.15s-.04.03-.04.03c-.09.04-.33.14-.52.22l-.19.07c-.19.07-.38.14-.56.2-.19.06-.36.11-.53.15-.17.04-.32.06-.44.06-.68 0-1.16-.2-1.43-.6l-.28-.41c-.02-.8-.03-1.58-.02-1.74l.02-.15.02-.15c.03-.18.11-.75.2-1.27l.06-.44.06-.44c.07-.45-.02-.82-.19-.82s-.49 0-.7-.01l-.09-.02c-.1-.02-.14-.07-.14-.14 0-.02.03-.07.07-.16.05-.09.11-.19.18-.31.07-.12.15-.25.23-.39.08-.14.16-.27.24-.39.08-.12.14-.23.2-.31l.06-.09c.03-.04.15-.07.26-.07s.27-.31.33-.69l.04-.25c.04-.25.08-.46.1-.63.03-.17.05-.3.07-.39.02-.09.04-.16.05-.2.02-.04.04-.07.06-.08l.02-.01c.04-.01.23-.06.43-.11l.17-.04.52-.12c.17-.04.35-.09.53-.14l.18-.05c.21-.07.39-.13.4-.13h.07c.01.03.02.06.02.07s-.05.3-.1.65l-.08.48-.08.48c-.1.64.18 1.15.63 1.15s.84 0 .88.01l.03.03c.03.03.04.07.04.14 0 .03-.03.11-.09.27l-.06.15c-.11.24-.25.58-.32.74s-.16.36-.2.43l-.03.03-.03.03c-.08-.02-.41 0-.72 0zM198.85 74.88c.15-1.09.28-2.01.28-2.04v-.02-.07c0-.04.02-.08.05-.11l.03-.03c.1-.04.58-.18 1.06-.32s.92-.27.98-.28l.08-.04a.63.63 0 0 1 .22-.05h.14c.03.13.05.28.04.34l-.03.19c-.03.19-.06.43-.1.71-.04.28-.09.59-.14.93-.05.34-.1.66-.15.96-.05.3-.09.57-.13.8l-.04.23c-.02.12.14.11.36-.03l.22-.12c.21-.11.43-.21.65-.3.21-.08.43-.15.64-.2.21-.05.42-.07.61-.07.25 0 .47.04.68.12.21.08.38.23.53.42.14.2.25.46.32.78s.08.71.05 1.18c-.01.12-.02.24-.04.37l-.01.12c-.02.14-.15.94-.29 1.77s-.28 1.7-.31 1.93l-.02.22-.02.22c-.02.26-.04.5-.04.54v.1c0 .04-.02.08-.05.1l-.03.02c-.1.04-.52.19-.94.33l-.87.29-.08.03a.63.63 0 0 1-.22.05c-.07 0-.12-.02-.15-.05l-.03-.04c0-.1.04-.48.1-.85l.04-.23c.04-.22.06-.41.08-.54.02-.14.04-.24.05-.31s.02-.14.03-.19c.01-.06.02-.12.03-.19.01-.07.03-.18.05-.31s.05-.32.08-.55c.04-.23.08-.52.14-.89.03-.2.06-.39.1-.58.03-.2.06-.37.07-.53.02-.21.02-.39.02-.56 0-.17-.03-.31-.06-.43s-.09-.21-.17-.28a.436.436 0 0 0-.3-.1c-.09 0-.22.03-.39.08s-.33.13-.5.25c-.17.11-.32.26-.46.45s-.23.41-.26.68c-.06.38-.11.69-.15.93-.04.24-.07.44-.09.6-.02.16-.04.28-.06.38-.01.09-.03.18-.04.26-.01.02-.02.08-.03.18-.02.1-.04.21-.06.34-.02.13-.05.27-.07.42-.02.15-.04.29-.07.42-.02.13-.04.25-.05.34-.01.09-.02.16-.02.18v.18c0 .04-.02.07-.05.1l-.03.03c-.1.04-.55.22-1 .41s-.87.36-.93.39l-.08.03c-.08.03-.15.04-.22.05-.06 0-.11-.02-.15-.06l-.04-.04c0-.09.12-1.06.27-2.15l.97-6.89zM213.02 80.05c-.18 1.08-.34 1.99-.34 2.01v.29l.03.08c.03.08.06.15.09.2s.07.09.1.12.04.06.04.08v.07c-.11.07-.57.32-1.04.55s-.86.43-.87.44h-.02c-.03 0-.06-.03-.09-.1s-.05-.16-.07-.26-.04-.22-.06-.34l-.02-.12c-.02-.12-.29.07-.61.41l-.31.17c-.31.17-.61.26-.9.26-.34 0-.67-.09-.98-.27a2.44 2.44 0 0 1-.8-.77c-.23-.33-.4-.74-.51-1.21-.11-.47-.15-1.01-.1-1.6.05-.7.19-1.34.4-1.92.21-.58.48-1.08.8-1.5s.68-.74 1.08-.97c.4-.23.82-.35 1.25-.35.3 0 .59.07.85.22l.26.15c.26.23.49.31.53.16l.01-.09c.01-.09.03-.16.04-.21.02-.05.05-.08.09-.1l.04-.02c.09-.01.43-.07.75-.12l.29-.04.29-.04c.34-.03.47.83.29 1.92l-.51 2.9zm-2.15.31c.12-.6.26-1.34.32-1.64l.03-.25.03-.25c.03-.24 0-.49-.07-.55l-.07-.06c-.07-.06-.15-.12-.23-.18-.08-.06-.17-.1-.26-.13s-.19-.05-.3-.05c-.22 0-.41.09-.57.26-.16.17-.3.38-.41.64-.11.25-.2.52-.26.8s-.1.53-.12.74c-.06.78-.02 1.34.12 1.7.14.36.36.54.66.54.12 0 .26-.04.42-.13l.16-.08c.2-.16.44-.76.55-1.36zM220.42 83.47c-.42.14-.81.27-.86.29l-.08.03a.63.63 0 0 1-.22.05c-.06 0-.1-.02-.14-.05l-.04-.03c-.01-.08-.01-.15-.01-.17s.04-.24.08-.51l.03-.18c.03-.19.06-.35.08-.5.03-.15.05-.3.07-.45.02-.15.05-.32.08-.52s.07-.44.11-.71c.04-.27.1-.61.16-1.02.04-.25.08-.51.11-.77.04-.26.06-.5.08-.72.01-.15.01-.28 0-.41a.947.947 0 0 0-.07-.32.463.463 0 0 0-.18-.21.556.556 0 0 0-.3-.07c-.09 0-.22.03-.39.08s-.34.13-.51.25c-.17.11-.33.26-.47.45-.14.19-.23.41-.27.68-.05.36-.1.67-.14.93-.04.26-.07.48-.11.66-.03.18-.05.33-.07.44l-.02.11c-.01.1-.03.21-.04.25l-.01.09c-.01.09-.03.19-.05.32s-.04.25-.06.39c-.02.14-.04.27-.06.39-.02.12-.04.23-.05.32-.01.09-.02.14-.02.16v.18c0 .04-.02.07-.05.1l-.03.03c-.1.04-.55.22-1.01.41s-.88.36-.94.39l-.08.03c-.08.03-.15.04-.22.05-.06 0-.1-.02-.14-.05l-.04-.03c-.01-.08.12-1.03.29-2.12l.54-3.57c.16-1.09.32-2.1.35-2.25l.02-.06.02-.06c.07-.03.47-.14.88-.24l.4-.09.4-.09c.42-.15.79-.26.82-.26l.01.01c0 .01.01.03 0 .05 0 .01 0 .03-.01.04 0 .02-.01.06-.03.13s-.04.17-.07.31l-.03.14c-.05.24.16.28.48.09l.25-.12c.25-.12.49-.22.71-.29.22-.07.43-.11.62-.14.19-.02.37-.03.54-.04.57 0 .97.2 1.2.62l.23.42c.01.81.01 1.58 0 1.71l-.01.13-.01.12c-.02.14-.16.98-.3 1.85s-.29 1.76-.32 1.98l-.02.17-.02.17c-.02.24-.04.47-.04.5v.1c0 .04-.02.08-.05.1l-.03.03c-.1.01-.53.16-.94.3zM232.48 83.38c-.42.14-.81.27-.86.29l-.08.03a.63.63 0 0 1-.22.05c-.06 0-.1-.02-.14-.05l-.04-.03c-.01-.08-.01-.15-.01-.17s.04-.24.08-.51l.03-.18c.03-.19.06-.35.08-.5.03-.15.05-.3.07-.45.02-.15.05-.32.08-.52s.07-.44.11-.71c.04-.27.1-.61.16-1.02.04-.25.08-.51.11-.77.04-.26.06-.5.08-.72.01-.15.01-.28 0-.41a.947.947 0 0 0-.07-.32.463.463 0 0 0-.18-.21.556.556 0 0 0-.3-.07c-.09 0-.22.03-.39.08s-.34.13-.51.25c-.17.11-.33.26-.47.45-.14.19-.23.41-.27.68-.05.36-.1.67-.14.93-.04.26-.07.48-.11.66-.03.18-.05.33-.07.44l-.02.11c-.01.1-.03.21-.04.25l-.01.09c-.01.09-.03.19-.05.32s-.04.25-.06.39c-.02.14-.04.27-.06.39-.02.12-.04.23-.05.32-.01.09-.02.14-.02.16v.18c0 .04-.02.07-.05.1l-.03.03c-.1.04-.55.22-1.01.41s-.88.36-.94.39l-.08.03c-.08.03-.15.04-.22.05-.06 0-.1-.02-.14-.05l-.04-.03c-.01-.08.12-1.03.29-2.12l.54-3.57c.16-1.09.32-2.1.35-2.25l.02-.06.02-.06c.07-.03.47-.14.88-.24l.4-.09.4-.09c.42-.15.79-.26.82-.26l.01.01c0 .01.01.03 0 .05 0 .01 0 .03-.01.04 0 .02-.01.06-.03.13-.01.07-.04.17-.07.31l-.03.14c-.05.24.16.28.48.09l.25-.12c.25-.12.49-.22.71-.29.22-.07.43-.11.62-.14.19-.02.37-.03.54-.04.57 0 .97.2 1.2.62l.23.42c.01.81.01 1.58 0 1.71l-.01.13-.01.12c-.02.14-.16.98-.3 1.85s-.29 1.76-.32 1.98l-.02.17-.02.17c-.02.24-.04.47-.04.5v.1c0 .04-.02.08-.05.1l-.03.03c-.1.01-.53.16-.94.3zM239.66 75.1c.39 0 .73.08 1.03.25s.55.4.76.67c.2.28.35.58.45.93.09.34.13.69.1 1.03-.02.3-.12.61-.3.92s-.42.59-.71.83c-.3.25-.65.45-1.05.6-.4.15-.83.23-1.3.24h-.24c-.28-.05-.5.09-.48.31l.07.15c.07.15.17.28.29.37.12.1.26.17.42.21a2.08 2.08 0 0 0 1.07 0c.18-.04.36-.1.53-.17.17-.07.34-.15.5-.23l.16-.08c.16-.09.33-.18.37-.19l.03-.01.03-.01c.03 0 .04.13.02.3l-.01.14c-.01.14-.02.31-.04.52l-.02.2c-.02.26-.04.49-.03.52v.08c0 .06-.05.12-.15.19-.09.07-.22.14-.37.21-.15.07-.32.15-.51.22s-.38.13-.58.19-.38.1-.56.14-.34.05-.47.05c-.44 0-.86-.08-1.25-.27-.4-.18-.74-.44-1.04-.78-.29-.34-.51-.76-.67-1.25a4.38 4.38 0 0 1-.16-1.65c.05-.64.19-1.25.41-1.81.23-.56.52-1.05.88-1.47.36-.42.78-.75 1.26-.99.49-.23 1.01-.35 1.56-.36zm-.22 1.96c-.17 0-.32.04-.47.13-.15.09-.28.21-.41.37-.13.16-.24.35-.34.58l-.1.22c-.09.28.19.43.62.33l.28-.1c.28-.1.51-.2.69-.3.17-.1.3-.2.38-.3.08-.1.12-.2.13-.29a.374.374 0 0 0-.06-.25.606.606 0 0 0-.19-.2.853.853 0 0 0-.25-.13.939.939 0 0 0-.28-.06zM248.03 75.34c.05-.12.11-.25.14-.29H248.24c.01 0 .28.12.61.26l.31.09.31.09c.34.09.67.2.73.24l-.01.09v.06c-.05.13-.47 1.05-.93 2.05l-1.32 2.84c-.46 1-.87 1.89-.91 1.97l-.03.05c-.03.05-.06.1-.08.13-.03.03-.05.06-.08.07l-.03.01c-.04.01-.36.1-.71.19l-.32.1-.32.1c-.38.15-.7.27-.7.27h-.03c-.01 0-.04 0-.06-.01l-.01-.02-.01-.02c-.01-.02-.05-.25-.1-.51l-.05-.33c-.05-.33-.11-.71-.17-1.12-.06-.41-.13-.85-.19-1.32-.07-.47-.13-.94-.2-1.42s-.14-.96-.2-1.43l-.07-.47c-.07-.48-.15-.99-.17-1.13v-.06-.07c.06-.04.4-.14.76-.24l.35-.09.35-.09c.36-.15.66-.27.68-.27h.07c.01.04.1.97.2 2.07l.08.96c.09 1.1.2 1.92.24 1.83l.06-.16c.06-.16.13-.34.22-.56.09-.21.18-.46.28-.71.1-.26.21-.53.32-.8.11-.27.21-.54.32-.81.11-.27.21-.52.3-.75l.24-.61.06-.18zM254.76 75c.39 0 .73.08 1.03.25.3.17.55.39.76.67.2.28.35.58.45.93.09.34.13.69.1 1.03-.02.3-.12.61-.3.92s-.42.59-.71.83c-.3.25-.65.45-1.05.6-.4.15-.83.23-1.3.24h-.24c-.28-.05-.5.09-.48.31l.07.15c.07.15.17.28.29.37.12.1.26.17.42.21.16.05.33.07.5.07.2 0 .38-.02.57-.07.18-.04.36-.1.53-.17.17-.07.34-.15.5-.23l.16-.08c.16-.09.33-.18.37-.19l.03-.01.03-.01c.03 0 .04.13.02.3l-.01.14c-.01.14-.02.31-.04.52l-.02.2c-.02.26-.04.49-.03.52v.08c0 .06-.05.12-.15.19-.09.07-.22.14-.37.21-.15.07-.32.15-.51.22s-.38.13-.58.19-.38.1-.56.14-.34.05-.47.05c-.44 0-.86-.08-1.25-.27-.4-.18-.74-.44-1.04-.78-.29-.34-.51-.76-.67-1.25a4.38 4.38 0 0 1-.16-1.65c.05-.64.19-1.25.41-1.81.23-.56.52-1.05.88-1.47.36-.42.78-.75 1.26-1 .5-.22 1.01-.35 1.56-.35zm-.22 1.96c-.17 0-.32.04-.47.13-.15.09-.28.21-.41.37-.13.16-.24.35-.34.58l-.1.22c-.09.28.19.43.62.33l.28-.1c.28-.1.51-.2.69-.3.17-.1.3-.2.38-.3.08-.1.12-.2.13-.29a.374.374 0 0 0-.06-.25.606.606 0 0 0-.19-.2.853.853 0 0 0-.25-.13.671.671 0 0 0-.28-.06zM263.84 76.02c-.15.63-.36 1.13-.45 1.12l-.1-.01a2.644 2.644 0 0 0-.88.04c-.19.04-.36.11-.53.22-.17.11-.31.26-.44.45s-.22.44-.28.73c-.06.36-.1.66-.14.9s-.06.42-.08.57c-.02.15-.04.27-.05.36l-.01.09c-.01.09-.02.2-.03.24l-.01.09c-.01.09-.03.19-.05.31-.02.12-.04.25-.06.38-.02.14-.04.26-.06.38-.02.12-.04.22-.05.31s-.02.14-.02.16v.18c0 .04-.02.07-.05.1l-.03.03c-.1.04-.55.23-1.01.42s-.88.38-.94.4l-.07.03c-.08.03-.15.04-.22.04a.27.27 0 0 1-.15-.05l-.04-.03c-.01-.08.12-1.03.28-2.12l.5-3.34c.16-1.09.32-2.1.34-2.25l.02-.06.02-.06c.07-.03.47-.14.89-.24l.4-.09.4-.09c.42-.15.79-.26.82-.26v.01c0 .01.01.03 0 .06 0 .01 0 .02-.01.04 0 .02-.01.06-.03.13-.02.07-.04.17-.07.31l-.03.14c-.05.25.1.29.33.11l.24-.15c.24-.15.47-.28.71-.38.24-.11.46-.19.68-.25l.22-.06c.16-.04.19.46.04 1.09z"/></g><g id="__id2_s0ldbq2nlm"><path d="M85.35 49.17c-4.38-1-4.38-1-4.75-5.21-1.02-10.61-9.76-18.61-20.34-18.61-7.93 0-15.24 4.7-18.6 11.96-1.59 3.46-1.96 4.75-5.33 3.4-2.05-.81-3.98-.68-3.98-.68-4.05 0-7.34 3.29-7.34 7.34 0 .67.14 1.42.42 2.27 1.69 4.15 1.41 4.61-2.62 6.93-4.14 2.43-6.61 6.67-6.61 11.37 0 7.29 5.93 13.22 13.22 13.22H82.3c8.91 0 16.16-7.25 16.16-16.16-.01-7.72-5.52-14.38-13.11-15.83z" fill-rule="evenodd" clip-rule="evenodd" fill="#85d9f7"/></g><g id="__id3_s0ldbq2nlm"><path class="st7" d="M83.5 41.92C82.22 28.52 71.06 18 57.32 18c-10.63 0-19.74 6.31-23.93 15.37-1.26-.4-2.58-.68-3.98-.68-7.3 0-13.22 5.92-13.22 13.22 0 1.45.29 2.82.72 4.13-5.68 3.31-9.54 9.39-9.54 16.44 0 10.55 8.55 19.1 19.1 19.1h52.88c12.17 0 22.03-9.86 22.03-22.03 0-10.76-7.7-19.68-17.88-21.63m-4.15 37.77H26.47c-7.29 0-13.22-5.93-13.22-13.22 0-4.7 2.48-8.95 6.62-11.36 4.03-2.32 4.3-2.77 2.61-6.93-.28-.86-.42-1.6-.42-2.27 0-4.05 3.29-7.34 7.34-7.34 0 0 1.93-.14 3.98.68 3.37 1.34 3.74.06 5.33-3.41 3.37-7.26 10.67-11.96 18.6-11.96 10.58 0 19.32 8 20.34 18.61.36 4.21.36 4.21 4.75 5.21 7.59 1.45 13.11 8.11 13.11 15.84 0 8.91-7.25 16.15-16.16 16.15"/><circle cx="20.35" cy="70.27" r="1.54" fill="#fff"/><path class="st7" d="M31.3 53.26h-.01c-6.89 0-12.47 5.59-12.47 12.48 0 .81.66 1.47 1.47 1.47.81 0 1.47-.66 1.47-1.47 0-5.27 4.27-9.55 9.54-9.55a1.464 1.464 0 1 0 0-2.93"/></g></svg>